<svg width="801" height="504" viewBox="0 0 801 504" fill="none" xmlns="http://www.w3.org/2000/svg">
<g clip-path="url(#clip0)">
<path d="M195.938 316.891H130.246C126.487 316.891 123.439 319.963 123.439 323.754V341.859C123.439 345.65 126.487 348.723 130.246 348.723H195.938C199.697 348.723 202.745 345.65 202.745 341.859V323.754C202.745 319.963 199.697 316.891 195.938 316.891Z" fill="#6C63FF"/>
<path d="M275.244 316.891H209.551C205.792 316.891 202.745 319.963 202.745 323.754V341.859C202.745 345.65 205.792 348.723 209.551 348.723H275.244C279.003 348.723 282.05 345.65 282.05 341.859V323.754C282.05 319.963 279.003 316.891 275.244 316.891Z" fill="#6C63FF"/>
<path opacity="0.1" d="M275.244 316.891H209.551C205.792 316.891 202.745 319.963 202.745 323.754V341.859C202.745 345.65 205.792 348.723 209.551 348.723H275.244C279.003 348.723 282.05 345.65 282.05 341.859V323.754C282.05 319.963 279.003 316.891 275.244 316.891Z" fill="black"/>
<path d="M354.549 316.891H288.856C285.097 316.891 282.05 319.963 282.05 323.754V341.859C282.05 345.65 285.097 348.723 288.856 348.723H354.549C358.308 348.723 361.355 345.65 361.355 341.859V323.754C361.355 319.963 358.308 316.891 354.549 316.891Z" fill="#6C63FF"/>
<path d="M433.854 316.891H368.162C364.403 316.891 361.355 319.963 361.355 323.754V341.859C361.355 345.65 364.403 348.723 368.162 348.723H433.854C437.614 348.723 440.661 345.65 440.661 341.859V323.754C440.661 319.963 437.614 316.891 433.854 316.891Z" fill="#6C63FF"/>
<path opacity="0.1" d="M433.854 316.891H368.162C364.403 316.891 361.355 319.963 361.355 323.754V341.859C361.355 345.65 364.403 348.723 368.162 348.723H433.854C437.614 348.723 440.661 345.65 440.661 341.859V323.754C440.661 319.963 437.614 316.891 433.854 316.891Z" fill="black"/>
<path d="M513.16 316.891H447.467C443.708 316.891 440.661 319.963 440.661 323.754V341.859C440.661 345.65 443.708 348.723 447.467 348.723H513.16C516.919 348.723 519.966 345.65 519.966 341.859V323.754C519.966 319.963 516.919 316.891 513.16 316.891Z" fill="#6C63FF"/>
<path d="M592.465 316.891H526.773C523.014 316.891 519.966 319.963 519.966 323.754V341.859C519.966 345.65 523.014 348.723 526.773 348.723H592.465C596.224 348.723 599.272 345.65 599.272 341.859V323.754C599.272 319.963 596.224 316.891 592.465 316.891Z" fill="#6C63FF"/>
<path opacity="0.1" d="M592.465 316.891H526.773C523.014 316.891 519.966 319.963 519.966 323.754V341.859C519.966 345.65 523.014 348.723 526.773 348.723H592.465C596.224 348.723 599.272 345.65 599.272 341.859V323.754C599.272 319.963 596.224 316.891 592.465 316.891Z" fill="black"/>
<path d="M526.773 316.891H592.465C596.224 316.891 599.272 313.818 599.272 310.027V291.922C599.272 288.131 596.224 285.059 592.465 285.059H526.773C523.014 285.059 519.966 288.131 519.966 291.922V310.027C519.966 313.818 523.014 316.891 526.773 316.891Z" fill="#6C63FF"/>
<path d="M447.467 316.891H513.16C516.919 316.891 519.966 313.818 519.966 310.027V291.922C519.966 288.131 516.919 285.059 513.16 285.059H447.467C443.708 285.059 440.661 288.131 440.661 291.922V310.027C440.661 313.818 443.708 316.891 447.467 316.891Z" fill="#6C63FF"/>
<path opacity="0.1" d="M447.467 316.891H513.16C516.919 316.891 519.966 313.818 519.966 310.027V291.922C519.966 288.131 516.919 285.059 513.16 285.059H447.467C443.708 285.059 440.661 288.131 440.661 291.922V310.027C440.661 313.818 443.708 316.891 447.467 316.891Z" fill="black"/>
<path d="M368.162 316.891H433.854C437.614 316.891 440.661 313.818 440.661 310.027V291.922C440.661 288.131 437.614 285.059 433.854 285.059H368.162C364.403 285.059 361.355 288.131 361.355 291.922V310.027C361.355 313.818 364.403 316.891 368.162 316.891Z" fill="#6C63FF"/>
<path d="M288.856 316.891H354.549C358.308 316.891 361.355 313.818 361.355 310.027V291.922C361.355 288.131 358.308 285.059 354.549 285.059H288.856C285.097 285.059 282.05 288.131 282.05 291.922V310.027C282.05 313.818 285.097 316.891 288.856 316.891Z" fill="#6C63FF"/>
<path opacity="0.1" d="M288.856 316.891H354.549C358.308 316.891 361.355 313.818 361.355 310.027V291.922C361.355 288.131 358.308 285.059 354.549 285.059H288.856C285.097 285.059 282.05 288.131 282.05 291.922V310.027C282.05 313.818 285.097 316.891 288.856 316.891Z" fill="black"/>
<path d="M209.551 316.891H275.244C279.003 316.891 282.05 313.818 282.05 310.027V291.922C282.05 288.131 279.003 285.059 275.244 285.059H209.551C205.792 285.059 202.745 288.131 202.745 291.922V310.027C202.745 313.818 205.792 316.891 209.551 316.891Z" fill="#6C63FF"/>
<path d="M130.246 316.891H195.938C199.697 316.891 202.745 313.818 202.745 310.027V291.922C202.745 288.131 199.697 285.059 195.938 285.059H130.246C126.487 285.059 123.439 288.131 123.439 291.922V310.027C123.439 313.818 126.487 316.891 130.246 316.891Z" fill="#6C63FF"/>
<path opacity="0.1" d="M130.246 316.891H195.938C199.697 316.891 202.745 313.818 202.745 310.027V291.922C202.745 288.131 199.697 285.059 195.938 285.059H130.246C126.487 285.059 123.439 288.131 123.439 291.922V310.027C123.439 313.818 126.487 316.891 130.246 316.891Z" fill="black"/>
<path d="M195.938 253.227H130.246C126.487 253.227 123.439 256.299 123.439 260.09V278.195C123.439 281.986 126.487 285.058 130.246 285.058H195.938C199.697 285.058 202.745 281.986 202.745 278.195V260.09C202.745 256.299 199.697 253.227 195.938 253.227Z" fill="#6C63FF"/>
<path d="M275.244 253.227H209.551C205.792 253.227 202.745 256.299 202.745 260.09V278.195C202.745 281.986 205.792 285.058 209.551 285.058H275.244C279.003 285.058 282.05 281.986 282.05 278.195V260.09C282.05 256.299 279.003 253.227 275.244 253.227Z" fill="#6C63FF"/>
<path opacity="0.1" d="M275.244 253.227H209.551C205.792 253.227 202.745 256.299 202.745 260.09V278.195C202.745 281.986 205.792 285.058 209.551 285.058H275.244C279.003 285.058 282.05 281.986 282.05 278.195V260.09C282.05 256.299 279.003 253.227 275.244 253.227Z" fill="black"/>
<path d="M354.549 253.227H288.856C285.097 253.227 282.05 256.299 282.05 260.09V278.195C282.05 281.986 285.097 285.058 288.856 285.058H354.549C358.308 285.058 361.355 281.986 361.355 278.195V260.09C361.355 256.299 358.308 253.227 354.549 253.227Z" fill="#6C63FF"/>
<path d="M433.854 253.227H368.162C364.403 253.227 361.355 256.299 361.355 260.09V278.195C361.355 281.986 364.403 285.058 368.162 285.058H433.854C437.614 285.058 440.661 281.986 440.661 278.195V260.09C440.661 256.299 437.614 253.227 433.854 253.227Z" fill="#6C63FF"/>
<path opacity="0.1" d="M433.854 253.227H368.162C364.403 253.227 361.355 256.299 361.355 260.09V278.195C361.355 281.986 364.403 285.058 368.162 285.058H433.854C437.614 285.058 440.661 281.986 440.661 278.195V260.09C440.661 256.299 437.614 253.227 433.854 253.227Z" fill="black"/>
<path d="M513.16 253.227H447.467C443.708 253.227 440.661 256.299 440.661 260.09V278.195C440.661 281.986 443.708 285.058 447.467 285.058H513.16C516.919 285.058 519.966 281.986 519.966 278.195V260.09C519.966 256.299 516.919 253.227 513.16 253.227Z" fill="#6C63FF"/>
<path d="M592.465 253.227H526.773C523.014 253.227 519.966 256.299 519.966 260.09V278.195C519.966 281.986 523.014 285.058 526.773 285.058H592.465C596.224 285.058 599.272 281.986 599.272 278.195V260.09C599.272 256.299 596.224 253.227 592.465 253.227Z" fill="#6C63FF"/>
<path opacity="0.1" d="M592.465 253.227H526.773C523.014 253.227 519.966 256.299 519.966 260.09V278.195C519.966 281.986 523.014 285.058 526.773 285.058H592.465C596.224 285.058 599.272 281.986 599.272 278.195V260.09C599.272 256.299 596.224 253.227 592.465 253.227Z" fill="black"/>
<path d="M526.773 253.227H592.465C596.224 253.227 599.272 250.154 599.272 246.363V228.258C599.272 224.467 596.224 221.395 592.465 221.395H526.773C523.014 221.395 519.966 224.467 519.966 228.258V246.363C519.966 250.154 523.014 253.227 526.773 253.227Z" fill="#6C63FF"/>
<path d="M447.467 253.227H513.16C516.919 253.227 519.966 250.154 519.966 246.363V228.258C519.966 224.467 516.919 221.395 513.16 221.395H447.467C443.708 221.395 440.661 224.467 440.661 228.258V246.363C440.661 250.154 443.708 253.227 447.467 253.227Z" fill="#6C63FF"/>
<path opacity="0.1" d="M447.467 253.227H513.16C516.919 253.227 519.966 250.154 519.966 246.363V228.258C519.966 224.467 516.919 221.395 513.16 221.395H447.467C443.708 221.395 440.661 224.467 440.661 228.258V246.363C440.661 250.154 443.708 253.227 447.467 253.227Z" fill="black"/>
<path d="M368.162 253.227H433.854C437.614 253.227 440.661 250.154 440.661 246.363V228.258C440.661 224.467 437.614 221.395 433.854 221.395H368.162C364.403 221.395 361.355 224.467 361.355 228.258V246.363C361.355 250.154 364.403 253.227 368.162 253.227Z" fill="#6C63FF"/>
<path d="M288.856 253.227H354.549C358.308 253.227 361.355 250.154 361.355 246.363V228.258C361.355 224.467 358.308 221.395 354.549 221.395H288.856C285.097 221.395 282.05 224.467 282.05 228.258V246.363C282.05 250.154 285.097 253.227 288.856 253.227Z" fill="#6C63FF"/>
<path opacity="0.1" d="M288.856 253.227H354.549C358.308 253.227 361.355 250.154 361.355 246.363V228.258C361.355 224.467 358.308 221.395 354.549 221.395H288.856C285.097 221.395 282.05 224.467 282.05 228.258V246.363C282.05 250.154 285.097 253.227 288.856 253.227Z" fill="black"/>
<path d="M209.551 253.227H275.244C279.003 253.227 282.05 250.154 282.05 246.363V228.258C282.05 224.467 279.003 221.395 275.244 221.395H209.551C205.792 221.395 202.745 224.467 202.745 228.258V246.363C202.745 250.154 205.792 253.227 209.551 253.227Z" fill="#6C63FF"/>
<path d="M130.246 253.227H195.938C199.697 253.227 202.745 250.154 202.745 246.363V228.258C202.745 224.467 199.697 221.395 195.938 221.395H130.246C126.487 221.395 123.439 224.467 123.439 228.258V246.363C123.439 250.154 126.487 253.227 130.246 253.227Z" fill="#6C63FF"/>
<path opacity="0.1" d="M130.246 253.227H195.938C199.697 253.227 202.745 250.154 202.745 246.363V228.258C202.745 224.467 199.697 221.395 195.938 221.395H130.246C126.487 221.395 123.439 224.467 123.439 228.258V246.363C123.439 250.154 126.487 253.227 130.246 253.227Z" fill="black"/>
<path d="M195.938 191.115H130.246C126.487 191.115 123.439 194.188 123.439 197.979V216.084C123.439 219.874 126.487 222.947 130.246 222.947H195.938C199.697 222.947 202.745 219.874 202.745 216.084V197.979C202.745 194.188 199.697 191.115 195.938 191.115Z" fill="#6C63FF"/>
<path d="M275.244 191.115H209.551C205.792 191.115 202.745 194.188 202.745 197.979V216.084C202.745 219.874 205.792 222.947 209.551 222.947H275.244C279.003 222.947 282.05 219.874 282.05 216.084V197.979C282.05 194.188 279.003 191.115 275.244 191.115Z" fill="#6C63FF"/>
<path opacity="0.1" d="M275.244 191.115H209.551C205.792 191.115 202.745 194.188 202.745 197.979V216.084C202.745 219.874 205.792 222.947 209.551 222.947H275.244C279.003 222.947 282.05 219.874 282.05 216.084V197.979C282.05 194.188 279.003 191.115 275.244 191.115Z" fill="black"/>
<path d="M354.549 191.115H288.856C285.097 191.115 282.05 194.188 282.05 197.979V216.084C282.05 219.874 285.097 222.947 288.856 222.947H354.549C358.308 222.947 361.355 219.874 361.355 216.084V197.979C361.355 194.188 358.308 191.115 354.549 191.115Z" fill="#6C63FF"/>
<path d="M433.854 191.115H368.162C364.403 191.115 361.355 194.188 361.355 197.979V216.084C361.355 219.874 364.403 222.947 368.162 222.947H433.854C437.614 222.947 440.661 219.874 440.661 216.084V197.979C440.661 194.188 437.614 191.115 433.854 191.115Z" fill="#6C63FF"/>
<path opacity="0.1" d="M433.854 191.115H368.162C364.403 191.115 361.355 194.188 361.355 197.979V216.084C361.355 219.874 364.403 222.947 368.162 222.947H433.854C437.614 222.947 440.661 219.874 440.661 216.084V197.979C440.661 194.188 437.614 191.115 433.854 191.115Z" fill="black"/>
<path d="M513.16 191.115H447.467C443.708 191.115 440.661 194.188 440.661 197.979V216.084C440.661 219.874 443.708 222.947 447.467 222.947H513.16C516.919 222.947 519.966 219.874 519.966 216.084V197.979C519.966 194.188 516.919 191.115 513.16 191.115Z" fill="#6C63FF"/>
<path d="M592.465 191.115H526.773C523.014 191.115 519.966 194.188 519.966 197.979V216.084C519.966 219.874 523.014 222.947 526.773 222.947H592.465C596.224 222.947 599.272 219.874 599.272 216.084V197.979C599.272 194.188 596.224 191.115 592.465 191.115Z" fill="#6C63FF"/>
<path opacity="0.1" d="M592.465 191.115H526.773C523.014 191.115 519.966 194.188 519.966 197.979V216.084C519.966 219.874 523.014 222.947 526.773 222.947H592.465C596.224 222.947 599.272 219.874 599.272 216.084V197.979C599.272 194.188 596.224 191.115 592.465 191.115Z" fill="black"/>
<path d="M526.773 191.115H592.465C596.224 191.115 599.272 188.042 599.272 184.252V166.147C599.272 162.356 596.224 159.283 592.465 159.283H526.773C523.014 159.283 519.966 162.356 519.966 166.147V184.252C519.966 188.042 523.014 191.115 526.773 191.115Z" fill="#6C63FF"/>
<path d="M447.467 191.115H513.16C516.919 191.115 519.966 188.042 519.966 184.252V166.147C519.966 162.356 516.919 159.283 513.16 159.283H447.467C443.708 159.283 440.661 162.356 440.661 166.147V184.252C440.661 188.042 443.708 191.115 447.467 191.115Z" fill="#6C63FF"/>
<path opacity="0.1" d="M447.467 191.115H513.16C516.919 191.115 519.966 188.042 519.966 184.252V166.147C519.966 162.356 516.919 159.283 513.16 159.283H447.467C443.708 159.283 440.661 162.356 440.661 166.147V184.252C440.661 188.042 443.708 191.115 447.467 191.115Z" fill="black"/>
<path d="M368.162 191.115H433.854C437.614 191.115 440.661 188.042 440.661 184.252V166.147C440.661 162.356 437.614 159.283 433.854 159.283H368.162C364.403 159.283 361.355 162.356 361.355 166.147V184.252C361.355 188.042 364.403 191.115 368.162 191.115Z" fill="#6C63FF"/>
<path d="M288.856 191.115H354.549C358.308 191.115 361.355 188.042 361.355 184.252V166.147C361.355 162.356 358.308 159.283 354.549 159.283H288.856C285.097 159.283 282.05 162.356 282.05 166.147V184.252C282.05 188.042 285.097 191.115 288.856 191.115Z" fill="#6C63FF"/>
<path opacity="0.1" d="M288.856 191.115H354.549C358.308 191.115 361.355 188.042 361.355 184.252V166.147C361.355 162.356 358.308 159.283 354.549 159.283H288.856C285.097 159.283 282.05 162.356 282.05 166.147V184.252C282.05 188.042 285.097 191.115 288.856 191.115Z" fill="black"/>
<path d="M209.551 191.115H275.244C279.003 191.115 282.05 188.042 282.05 184.252V166.147C282.05 162.356 279.003 159.283 275.244 159.283H209.551C205.792 159.283 202.745 162.356 202.745 166.147V184.252C202.745 188.042 205.792 191.115 209.551 191.115Z" fill="#6C63FF"/>
<path d="M130.246 191.115H195.938C199.697 191.115 202.745 188.042 202.745 184.252V166.147C202.745 162.356 199.697 159.283 195.938 159.283H130.246C126.487 159.283 123.439 162.356 123.439 166.147V184.252C123.439 188.042 126.487 191.115 130.246 191.115Z" fill="#6C63FF"/>
<path opacity="0.1" d="M130.246 191.115H195.938C199.697 191.115 202.745 188.042 202.745 184.252V166.147C202.745 162.356 199.697 159.283 195.938 159.283H130.246C126.487 159.283 123.439 162.356 123.439 166.147V184.252C123.439 188.042 126.487 191.115 130.246 191.115Z" fill="black"/>
<path d="M195.938 127.451H130.246C126.487 127.451 123.439 130.524 123.439 134.314V152.42C123.439 156.21 126.487 159.283 130.246 159.283H195.938C199.697 159.283 202.745 156.21 202.745 152.42V134.314C202.745 130.524 199.697 127.451 195.938 127.451Z" fill="#6C63FF"/>
<path d="M275.244 127.451H209.551C205.792 127.451 202.745 130.524 202.745 134.314V152.42C202.745 156.21 205.792 159.283 209.551 159.283H275.244C279.003 159.283 282.05 156.21 282.05 152.42V134.314C282.05 130.524 279.003 127.451 275.244 127.451Z" fill="#6C63FF"/>
<path opacity="0.1" d="M275.244 127.451H209.551C205.792 127.451 202.745 130.524 202.745 134.314V152.42C202.745 156.21 205.792 159.283 209.551 159.283H275.244C279.003 159.283 282.05 156.21 282.05 152.42V134.314C282.05 130.524 279.003 127.451 275.244 127.451Z" fill="black"/>
<path d="M354.549 127.451H288.856C285.097 127.451 282.05 130.524 282.05 134.314V152.42C282.05 156.21 285.097 159.283 288.856 159.283H354.549C358.308 159.283 361.355 156.21 361.355 152.42V134.314C361.355 130.524 358.308 127.451 354.549 127.451Z" fill="#6C63FF"/>
<path d="M433.854 127.451H368.162C364.403 127.451 361.355 130.524 361.355 134.314V152.42C361.355 156.21 364.403 159.283 368.162 159.283H433.854C437.614 159.283 440.661 156.21 440.661 152.42V134.314C440.661 130.524 437.614 127.451 433.854 127.451Z" fill="#6C63FF"/>
<path opacity="0.1" d="M433.854 127.451H368.162C364.403 127.451 361.355 130.524 361.355 134.314V152.42C361.355 156.21 364.403 159.283 368.162 159.283H433.854C437.614 159.283 440.661 156.21 440.661 152.42V134.314C440.661 130.524 437.614 127.451 433.854 127.451Z" fill="black"/>
<path d="M513.16 127.451H447.467C443.708 127.451 440.661 130.524 440.661 134.314V152.42C440.661 156.21 443.708 159.283 447.467 159.283H513.16C516.919 159.283 519.966 156.21 519.966 152.42V134.314C519.966 130.524 516.919 127.451 513.16 127.451Z" fill="#6C63FF"/>
<path d="M592.465 127.451H526.773C523.014 127.451 519.966 130.524 519.966 134.314V152.42C519.966 156.21 523.014 159.283 526.773 159.283H592.465C596.224 159.283 599.272 156.21 599.272 152.42V134.314C599.272 130.524 596.224 127.451 592.465 127.451Z" fill="#6C63FF"/>
<path opacity="0.1" d="M592.465 127.451H526.773C523.014 127.451 519.966 130.524 519.966 134.314V152.42C519.966 156.21 523.014 159.283 526.773 159.283H592.465C596.224 159.283 599.272 156.21 599.272 152.42V134.314C599.272 130.524 596.224 127.451 592.465 127.451Z" fill="black"/>
<path d="M592.465 21.4043H520.613C516.854 21.4043 513.807 24.4771 513.807 28.2676V48.8418C513.807 52.6323 516.854 55.7051 520.613 55.7051H592.465C596.224 55.7051 599.272 52.6323 599.272 48.8418V28.2676C599.272 24.4771 596.224 21.4043 592.465 21.4043Z" fill="url(#paint0_linear)"/>
<path d="M523.693 54.4707L589.385 54.4707C593.145 54.4707 596.192 51.3979 596.192 47.6074V29.5021C596.192 25.7116 593.145 22.6388 589.385 22.6388L523.693 22.6388C519.934 22.6388 516.886 25.7116 516.886 29.5021V47.6074C516.886 51.3979 519.934 54.4707 523.693 54.4707Z" fill="#6C63FF"/>
<path d="M447.467 127.451L513.16 127.451C516.919 127.451 519.966 124.378 519.966 120.588V102.483C519.966 98.6921 516.919 95.6193 513.16 95.6193L447.467 95.6193C443.708 95.6193 440.661 98.6921 440.661 102.483V120.588C440.661 124.378 443.708 127.451 447.467 127.451Z" fill="#6C63FF"/>
<path opacity="0.1" d="M447.467 127.451L513.16 127.451C516.919 127.451 519.966 124.378 519.966 120.588V102.483C519.966 98.6921 516.919 95.6193 513.16 95.6193L447.467 95.6193C443.708 95.6193 440.661 98.6921 440.661 102.483V120.588C440.661 124.378 443.708 127.451 447.467 127.451Z" fill="black"/>
<path d="M368.162 127.451L433.854 127.451C437.614 127.451 440.661 124.378 440.661 120.588V102.483C440.661 98.6921 437.614 95.6193 433.854 95.6193L368.162 95.6193C364.403 95.6193 361.355 98.6921 361.355 102.483V120.588C361.355 124.378 364.403 127.451 368.162 127.451Z" fill="#6C63FF"/>
<path d="M288.856 127.451L354.549 127.451C358.308 127.451 361.355 124.378 361.355 120.588V102.483C361.355 98.6921 358.308 95.6193 354.549 95.6193L288.856 95.6193C285.097 95.6193 282.05 98.6921 282.05 102.483V120.588C282.05 124.378 285.097 127.451 288.856 127.451Z" fill="#6C63FF"/>
<path opacity="0.1" d="M288.856 127.451L354.549 127.451C358.308 127.451 361.355 124.378 361.355 120.588V102.483C361.355 98.6921 358.308 95.6193 354.549 95.6193L288.856 95.6193C285.097 95.6193 282.05 98.6921 282.05 102.483V120.588C282.05 124.378 285.097 127.451 288.856 127.451Z" fill="black"/>
<path d="M209.551 127.451L275.244 127.451C279.003 127.451 282.05 124.378 282.05 120.588V102.483C282.05 98.6921 279.003 95.6193 275.244 95.6193L209.551 95.6193C205.792 95.6193 202.745 98.6921 202.745 102.483V120.588C202.745 124.378 205.792 127.451 209.551 127.451Z" fill="#6C63FF"/>
<path d="M130.246 127.451L195.938 127.451C199.697 127.451 202.745 124.378 202.745 120.588V102.483C202.745 98.6921 199.697 95.6193 195.938 95.6193L130.246 95.6193C126.487 95.6193 123.439 98.6921 123.439 102.483V120.588C123.439 124.378 126.487 127.451 130.246 127.451Z" fill="#6C63FF"/>
<path opacity="0.1" d="M130.246 127.451L195.938 127.451C199.697 127.451 202.745 124.378 202.745 120.588V102.483C202.745 98.6921 199.697 95.6193 195.938 95.6193L130.246 95.6193C126.487 95.6193 123.439 98.6921 123.439 102.483V120.588C123.439 124.378 126.487 127.451 130.246 127.451Z" fill="black"/>
<path d="M384.208 504C596.4 504 768.416 464.547 768.416 415.88C768.416 367.212 596.4 327.76 384.208 327.76C172.016 327.76 0 367.212 0 415.88C0 464.547 172.016 504 384.208 504Z" fill="#040404" fill-opacity="0.79"/>
<path d="M87.7364 376.331C87.7364 376.331 94.666 352.721 86.4429 335.337C82.9575 328.07 81.9064 319.858 83.4478 311.937C84.2085 308.182 85.309 304.504 86.7355 300.951" stroke="#535461" stroke-width="2" stroke-miterlimit="10"/>
<path d="M81.6384 289.973C81.6384 292.869 86.8356 301.262 86.8356 301.262C86.8356 301.262 92.0328 292.869 92.0328 289.973C92.0328 288.583 91.4853 287.25 90.5106 286.267C89.5359 285.285 88.214 284.732 86.8356 284.732C85.4572 284.732 84.1353 285.285 83.1607 286.267C82.186 287.25 81.6384 288.583 81.6384 289.973V289.973Z" fill="#6C63FF"/>
<path d="M73.0457 306.005C74.5856 308.435 83.494 312.628 83.494 312.628C83.494 312.628 83.3323 302.737 81.7693 300.307C81.0162 299.148 79.8391 298.338 78.4953 298.052C77.1514 297.766 75.75 298.029 74.5973 298.782C73.4446 299.535 72.6343 300.717 72.3436 302.071C72.0529 303.424 72.3053 304.839 73.0457 306.005Z" fill="#6C63FF"/>
<path d="M73.423 333.396C75.9869 334.7 85.7423 333.8 85.7423 333.8C85.7423 333.8 80.6529 325.345 78.0889 324.04C76.8626 323.449 75.4553 323.365 74.1686 323.808C72.882 324.25 71.8185 325.183 71.2061 326.407C70.5937 327.631 70.4813 329.048 70.8928 330.354C71.3043 331.661 72.2071 332.753 73.4076 333.396H73.423Z" fill="#6C63FF"/>
<path d="M78.3353 354.057C80.6452 355.78 90.4236 356.557 90.4236 356.557C90.4236 356.557 86.8202 347.356 84.5181 345.633C83.4067 344.896 82.0575 344.617 80.7483 344.853C79.4391 345.089 78.2695 345.823 77.4802 346.902C76.6909 347.981 76.3421 349.325 76.5054 350.656C76.6688 351.987 77.332 353.204 78.3584 354.057H78.3353Z" fill="#6C63FF"/>
<path d="M94.4043 313.188C92.3485 315.206 82.7549 317.295 82.7549 317.295C82.7549 317.295 85.1032 307.691 87.159 305.649C87.6484 305.169 88.2267 304.791 88.8609 304.537C89.4951 304.283 90.1727 304.157 90.8552 304.167C91.5376 304.176 92.2115 304.321 92.8383 304.594C93.465 304.866 94.0325 305.26 94.5083 305.754C94.984 306.247 95.3587 306.83 95.6109 307.47C95.8631 308.109 95.988 308.793 95.9784 309.481C95.9687 310.169 95.8247 310.848 95.5547 311.48C95.2846 312.112 94.8937 312.685 94.4043 313.164V313.188Z" fill="#6C63FF"/>
<path d="M99.8479 337.403C97.2839 338.707 87.5286 337.807 87.5286 337.807C87.5286 337.807 92.618 329.352 95.1819 328.048C96.4038 327.492 97.7914 327.433 99.0549 327.885C100.318 328.336 101.36 329.262 101.962 330.47C102.565 331.678 102.681 333.073 102.287 334.365C101.893 335.657 101.019 336.745 99.8479 337.403V337.403Z" fill="#6C63FF"/>
<path d="M101.927 361.719C99.6168 363.442 89.8384 364.219 89.8384 364.219C89.8384 364.219 93.4418 355.019 95.7439 353.295C96.8553 352.558 98.2045 352.279 99.5137 352.515C100.823 352.752 101.992 353.485 102.782 354.564C103.571 355.644 103.92 356.987 103.757 358.318C103.593 359.649 102.93 360.866 101.904 361.719H101.927Z" fill="#6C63FF"/>
<path d="M459.648 242.527C459.648 242.527 484.972 268.063 470.674 305.95C456.376 343.838 495.181 406.881 495.181 406.881C495.181 406.881 494.766 406.819 493.996 406.679C441.985 397.386 416.146 337.402 445.065 292.853C455.814 276.285 464.645 256.859 459.648 242.527Z" fill="#6C63FF"/>
<path opacity="0.2" d="M459.648 242.527C459.648 242.527 484.972 268.063 470.674 305.95C456.376 343.838 495.181 406.881 495.181 406.881C495.181 406.881 494.766 406.819 493.996 406.679C441.985 397.386 416.146 337.402 445.065 292.853C455.814 276.285 464.645 256.859 459.648 242.527Z" fill="black"/>
<path d="M459.648 242.527C459.648 242.527 473.946 273.824 459.648 299.359C445.35 324.894 457.2 396.547 495.205 406.842" stroke="#535461" stroke-miterlimit="10"/>
<path d="M414.552 345.796C414.552 345.796 443.448 341.138 446.081 367.271C448.715 393.404 501.641 396.999 501.641 396.999L500.648 397.667C456.946 426.595 415.183 416.091 421.466 377.683C423.807 363.405 423.599 349.049 414.552 345.796Z" fill="#6C63FF"/>
<path opacity="0.2" d="M414.552 345.796C414.552 345.796 443.448 341.138 446.081 367.271C448.715 393.404 501.641 396.999 501.641 396.999L500.648 397.667C456.946 426.595 415.183 416.091 421.466 377.683C423.807 363.405 423.599 349.049 414.552 345.796Z" fill="#F5F5F5"/>
<path d="M414.552 345.795C414.552 345.795 436.981 350.756 435.14 371.323C433.3 391.889 468.449 416.539 501.641 396.998" stroke="#535461" stroke-miterlimit="10"/>
<path d="M634.389 405.903C634.389 405.903 591.503 397.254 580.061 385.717C568.62 374.18 517.156 354.001 511.435 368.419C505.714 382.837 434.239 431.858 482.885 440.507C531.531 449.156 597.254 452.036 611.552 446.275C625.85 440.514 634.389 405.903 634.389 405.903Z" fill="#A8A8A8"/>
<path opacity="0.2" d="M482.885 435.151C531.493 443.8 597.254 446.68 611.552 440.92C622.44 436.525 630.031 415.431 632.996 405.609L634.428 405.912C634.428 405.912 625.851 440.508 611.552 446.284C597.254 452.061 531.477 449.165 482.885 440.516C468.857 438.016 464.845 432.154 466.354 424.732C467.486 429.569 472.406 433.288 482.885 435.151Z" fill="black"/>
<path d="M721.163 21.8717C720.399 19.9511 719.18 18.248 717.614 16.9106C706.103 6.33615 687.493 9.54264 673.203 3.07532C669.907 1.58466 666.535 -0.480537 662.962 0.0862262C657.973 0.862614 653.33 6.60788 648.98 4.06133L649.288 5.01629L648.98 4.85325L652.183 14.6823C653.415 18.4556 654.708 22.3375 657.095 25.4819C653.561 28.5894 650.856 32.5409 649.228 36.9749C647.6 41.4089 647.1 46.1838 647.775 50.8628C648.45 55.5418 650.278 59.9754 653.091 63.7581C655.904 67.5408 659.613 70.5517 663.879 72.5155C664.033 72.8416 664.179 73.1754 664.325 73.5092L664.733 73.6801C665.681 75.8786 666.388 78.1747 666.843 80.5278C663.139 81.048 656.68 85.1861 650.335 91.273L637.646 90.846C629.439 90.5697 621.497 87.8463 614.825 83.02L576.82 55.497C574.113 55.7659 571.562 56.9034 569.544 58.7423C564.832 53.789 560.828 48.6493 561.167 45.5437C561.167 45.5437 543.504 12.2134 537.082 28.8747C530.661 45.536 549.124 63.0358 549.124 63.0358L560.835 78.3384C560.373 81.0214 560.08 83.7312 559.958 86.4516C574.41 103.121 624.98 118.198 624.98 118.198L632.865 118.586L632.911 118.975C632.426 121.061 632.188 123.198 632.203 125.341C632.203 125.651 632.203 125.97 632.203 126.296C632.203 126.622 632.203 126.723 632.203 126.933C632.603 153.516 636.214 234.85 636.214 234.85C636.915 234.532 637.646 234.245 638.385 233.973L637.823 241.201C637.823 241.201 604.107 245.961 579.222 255.487C554.337 265.013 553.536 276.123 553.536 276.123V374.15C546.43 377.83 535.211 382.69 529.452 380.074C523.2 377.263 519.774 379.623 519.15 382.085C519.031 382.572 519.031 383.081 519.15 383.568C519.203 383.787 519.283 383.998 519.389 384.196V384.243C519.503 384.448 519.646 384.637 519.812 384.802C522.222 387.185 574.402 407.814 586.444 404.639C586.817 404.54 587.182 404.416 587.538 404.266C587.653 404.219 587.753 404.157 587.869 404.103C587.984 404.049 588.315 403.893 588.523 403.769C588.731 403.645 588.762 403.606 588.877 403.528C588.993 403.451 589.239 403.288 589.409 403.156C589.578 403.024 589.632 402.954 589.74 402.853C589.847 402.752 590.055 402.581 590.194 402.426C590.332 402.271 590.394 402.193 590.494 402.077C590.594 401.96 590.771 401.766 590.895 401.595C591.018 401.424 591.064 401.339 591.156 401.215C591.249 401.091 591.403 400.858 591.511 400.671C591.618 400.485 591.657 400.407 591.726 400.268C591.795 400.128 591.942 399.872 592.042 399.662C592.142 399.452 592.165 399.39 592.219 399.251C592.273 399.111 592.411 398.808 592.496 398.583C592.581 398.358 592.588 398.311 592.642 398.171C592.696 398.032 592.812 397.682 592.881 397.395C592.881 397.263 592.95 397.131 592.989 396.999C593.058 396.727 593.135 396.463 593.197 396.223C593.197 396.098 593.251 395.974 593.274 395.85C593.335 395.555 593.397 395.26 593.443 394.965C593.443 394.856 593.443 394.74 593.497 394.631C593.551 394.313 593.597 393.987 593.636 393.668V393.389C593.674 393.039 593.713 392.69 593.743 392.341V392.123C593.774 391.745 593.797 391.368 593.813 390.99V390.835C593.813 390.431 593.813 390.027 593.813 389.623V389.546C593.798 384.812 593.282 380.093 592.273 375.47V375.47L595.299 291.985C611.066 292.232 626.836 291.646 642.543 290.23L644.268 330.074C644.268 330.074 644.268 356.262 653.099 368.164C660.66 378.35 669.391 423.404 671.748 436.191C668.506 442.402 662.3 450.166 651.49 449.902C651.49 449.902 631.156 448.132 632.303 453.784C632.335 453.932 632.379 454.078 632.434 454.219V454.219C632.498 454.381 632.572 454.54 632.657 454.692V454.692C632.742 454.84 632.834 454.987 632.942 455.143L633.003 455.236C633.119 455.399 633.25 455.57 633.396 455.748V455.787C633.535 455.95 633.681 456.113 633.843 456.276L633.981 456.416C634.166 456.602 634.351 456.789 634.566 456.983C644.999 466.509 706.011 468.093 706.011 468.093V467.875C706.011 467.813 706.011 467.736 706.011 467.65C706.011 464.894 705.61 450.438 701.961 439.553H702.808C702.808 439.553 693.976 359.399 686.754 349.88C686.754 349.88 684.837 307.613 689.164 281.131L689.934 280.836C710.168 273.212 711.608 254.439 709.522 240.65C713.371 241.892 715.62 242.739 715.62 242.739C715.62 242.739 715.55 242.141 715.419 241.077L715.62 241.155C715.62 241.155 715.235 238.631 714.596 234.703C713.148 223.888 710.345 204.991 707.358 196.07C706.873 194.106 706.411 192.429 705.987 191.163C704.263 185.802 703.079 180.28 702.453 174.68C701.635 167.422 701.221 160.123 701.214 152.817C701.279 143.057 702.02 133.313 703.431 123.656C704.655 115.225 705.741 105.628 705.664 98.9282C705.749 96.5883 705.586 94.2459 705.179 91.9407C704.109 86.9951 699.374 83.7809 694.454 81.7312C694.138 81.5992 693.814 81.4905 693.491 81.3663C693.614 79.4952 693.768 77.3679 693.968 75.1552C694.558 75.5671 695.224 75.8539 695.927 75.9981C696.63 76.1422 697.355 76.1407 698.057 75.9937C700.174 75.5279 701.691 73.7499 703.039 72.1117C710.153 63.2997 717.46 54.1151 720.193 43.168C721.297 38.2793 721.814 33.2745 721.733 28.2614C721.733 27.987 721.733 27.7127 721.733 27.4384C721.865 25.5635 721.672 23.6799 721.163 21.8717V21.8717Z" fill="url(#paint1_linear)"/>
<path d="M656.387 64.8288C656.387 64.8288 667.166 81.1329 664.856 88.8968C662.547 96.6607 690.265 92.0024 690.265 92.0024C690.265 92.0024 691.035 61.7232 696.425 54.7357C701.814 47.7482 656.387 64.8288 656.387 64.8288Z" fill="#F7C4A7"/>
<path d="M585.166 75.3104C585.166 75.3104 562.837 56.6771 563.607 49.6896C563.607 49.6896 546.668 17.0813 540.509 33.3855C534.349 49.6896 552.058 66.7702 552.058 66.7702L573.617 95.4965L585.166 75.3104Z" fill="#F7C4A7"/>
<path d="M562.452 367.619C562.452 367.619 541.664 380.818 533.194 376.936C524.725 373.054 521.645 379.265 523.955 381.594C526.264 383.923 576.312 404.109 587.861 401.004C599.41 397.898 593.536 372.464 593.536 372.464L562.452 367.619Z" fill="#535461"/>
<path d="M672.556 424.297C672.556 424.297 667.551 445.648 650.227 445.259C650.227 445.259 624.049 442.93 634.058 452.247C644.068 461.564 702.584 463.116 702.584 463.116C702.584 463.116 702.584 431.284 691.805 424.297C681.026 417.309 672.556 424.297 672.556 424.297Z" fill="#535461"/>
<path d="M640.988 273.676L643.298 328.023C643.298 328.023 643.298 353.644 651.767 365.29C660.237 376.936 670.246 435.165 670.246 435.165H699.504C699.504 435.165 691.035 356.75 684.105 347.433C684.105 347.433 681.026 278.334 691.805 262.807L640.988 273.676Z" fill="#575988"/>
<path opacity="0.96" d="M640.988 273.676L643.298 328.023C643.298 328.023 643.298 353.644 651.767 365.29C660.237 376.936 670.246 435.165 670.246 435.165H699.504C699.504 435.165 691.035 356.75 684.105 347.433C684.105 347.433 681.026 278.334 691.805 262.807L640.988 273.676Z" fill="#181B69"/>
<path d="M701.814 224.765C701.814 224.765 719.523 267.466 687.185 279.888C654.847 292.311 596.33 290.758 596.33 290.758L593.251 380.819C593.251 380.819 557.063 385.477 556.293 373.831V275.23C556.293 275.23 557.063 264.361 580.931 255.044C604.8 245.727 637.138 241.069 637.138 241.069L638.678 220.883L701.814 224.765Z" fill="#181B69"/>
<path opacity="0.1" d="M673.441 84.0909C679.592 83.4042 685.814 84.2907 691.535 86.6685C696.255 88.6716 700.775 91.8159 701.822 96.6528C703.039 102.383 701.691 115.232 700.144 126.109C697.664 143.155 697.349 160.45 699.204 177.576C699.974 184.711 701.091 190.93 702.592 193.701C707.212 202.242 711.831 242.614 711.831 242.614C711.831 242.614 661.014 223.204 635.606 234.85C635.606 234.85 632.141 155.27 631.756 129.261C631.456 109.122 656.78 86.1716 665.249 85.3952C670.208 84.9449 668.506 84.611 673.441 84.0909Z" fill="black"/>
<path d="M673.441 82.5381C679.592 81.8515 685.814 82.738 691.535 85.1157C696.255 87.1188 700.775 90.2632 701.822 95.1001C703.039 100.83 701.691 113.679 700.144 124.556C697.664 141.602 697.349 158.897 699.204 176.023C699.803 181.498 700.938 186.899 702.592 192.149C706.057 202.63 711.831 241.061 711.831 241.061C711.831 241.061 661.014 221.651 635.606 233.297C635.606 233.297 632.141 153.717 631.756 127.708C631.456 107.569 656.78 84.6188 665.249 83.8425C670.208 83.3922 668.506 83.0583 673.441 82.5381Z" fill="#070707"/>
<path opacity="0.1" d="M687.185 125.387L632.518 122.282C632.518 122.282 629.038 95.2559 636.93 95.5354L691.035 97.4375C691.035 97.4375 702.584 111.412 687.185 125.387Z" fill="black"/>
<path d="M687.185 123.835L624.819 120.729C624.819 120.729 576.312 105.978 562.452 89.6737C562.452 89.6737 563.222 60.9473 578.621 59.3945L615.048 86.3274C621.415 91.0361 629.039 93.7036 636.93 93.9826L691.035 95.8848C691.035 95.8848 702.584 109.86 687.185 123.835Z" fill="#676767"/>
<path opacity="0.1" d="M689.88 68.3215C690.796 60.9614 694.107 58.5157 696.425 55.5111C701.814 48.5236 656.387 65.6042 656.387 65.6042C658.735 69.2415 660.795 73.0602 662.547 77.0248C666.168 78.7075 670.108 79.5789 674.096 79.5792C680.764 79.5792 685.091 72.3044 689.88 68.3215Z" fill="black"/>
<path d="M674.096 78.8042C689.404 78.8042 701.814 66.2906 701.814 50.8543C701.814 35.4179 689.404 22.9043 674.096 22.9043C658.788 22.9043 646.378 35.4179 646.378 50.8543C646.378 66.2906 658.788 78.8042 674.096 78.8042Z" fill="#F7C4A7"/>
<path opacity="0.1" d="M656.595 31.2647C653.646 28.0117 652.222 23.6794 650.882 19.4791L647.802 9.85969C651.975 12.3441 656.425 6.75414 661.215 5.97775C664.641 5.42652 667.882 7.44514 671.039 8.89698C684.744 15.2168 702.607 12.0802 713.633 22.4294C715.14 23.7454 716.308 25.4105 717.036 27.2818C717.545 29.0452 717.753 30.8829 717.652 32.7166C717.742 37.6169 717.259 42.5109 716.212 47.2971C713.595 58.0035 706.588 66.9941 699.759 75.612C698.465 77.2502 697.01 78.9893 694.977 79.4474C691.012 80.3402 687.947 76.0235 686.415 72.2347C684.385 67.2142 682.888 61.9911 681.949 56.6526C681.549 54.3933 681.233 52.0642 680.117 50.0688C677.73 45.8065 671.848 41.7693 668.275 38.4618C664.703 35.1544 659.875 34.8749 656.595 31.2647Z" fill="black"/>
<path d="M656.595 30.4893C653.646 27.2363 652.222 22.904 650.882 18.7038L647.802 9.0843C651.975 11.5687 656.425 5.97875 661.215 5.20236C664.641 4.65113 667.882 6.66974 671.039 8.12159C684.744 14.4414 702.607 11.3048 713.633 21.654C715.14 22.97 716.308 24.6351 717.036 26.5065C717.545 28.2699 717.753 30.1075 717.652 31.9412C717.742 36.8415 717.259 41.7355 716.212 46.5217C713.595 57.2281 706.588 66.2187 699.759 74.8366C698.465 76.4748 697.01 78.2139 694.977 78.672C691.012 79.5648 687.947 75.2481 686.415 71.4593C684.385 66.4388 682.888 61.2157 681.949 55.8772C681.549 53.6179 681.233 51.2888 680.117 49.2934C677.73 45.0311 671.848 40.9939 668.275 37.6864C664.703 34.379 659.875 34.0995 656.595 30.4893Z" fill="#632652"/>
<path d="M681.411 59.0051C682.686 59.0051 683.72 56.7457 683.72 53.9586C683.72 51.1715 682.686 48.9121 681.411 48.9121C680.135 48.9121 679.101 51.1715 679.101 53.9586C679.101 56.7457 680.135 59.0051 681.411 59.0051Z" fill="#F7C4A7"/>
<path opacity="0.1" d="M695.27 188.662C695.27 188.662 693.73 193.32 686.03 192.544C678.331 191.768 656.002 190.215 656.002 192.544" fill="black"/>
<path opacity="0.5" d="M634.058 451.47C632.672 450.181 631.979 449.141 631.818 448.232C631.618 449.242 632.234 450.562 634.058 452.246C644.068 461.563 702.584 463.116 702.584 463.116C702.584 463.116 702.584 462.844 702.584 462.339C702.207 462.332 644.037 460.756 634.058 451.47Z" fill="white"/>
<path opacity="0.5" d="M587.861 399.451C576.312 402.557 526.265 382.371 523.955 380.042C523.647 379.727 523.426 379.336 523.316 378.908C523.182 379.373 523.171 379.866 523.283 380.336C523.395 380.807 523.627 381.241 523.955 381.594C526.265 383.924 576.312 404.11 587.861 401.004C593.805 399.405 595.129 391.897 595.022 384.98C594.906 391.424 593.358 397.961 587.861 399.451Z" fill="white"/>
<path d="M386.587 391.097C386.893 391.097 387.187 390.974 387.404 390.756C387.62 390.537 387.742 390.241 387.742 389.932C387.742 389.623 387.62 389.327 387.404 389.109C387.187 388.89 386.893 388.768 386.587 388.768C386.281 388.768 385.987 388.89 385.77 389.109C385.554 389.327 385.432 389.623 385.432 389.932C385.432 390.241 385.554 390.537 385.77 390.756C385.987 390.974 386.281 391.097 386.587 391.097V391.097Z" fill="#67647E"/>
<path d="M70.4432 370.499C70.4432 370.499 99.178 369.607 107.832 363.388C116.487 357.169 152.028 349.747 154.176 359.715C156.324 369.684 197.363 409.311 164.894 409.606C132.425 409.901 89.5227 404.513 80.8761 399.203C72.2295 393.892 70.4432 370.499 70.4432 370.499Z" fill="#A8A8A8"/>
<path opacity="0.2" d="M165.502 406.105C133.064 406.369 90.131 401.012 81.4844 395.701C74.9013 391.656 72.2449 377.153 71.4057 370.461H70.4432C70.4432 370.461 72.2603 393.83 80.9069 399.133C89.5535 404.436 132.486 409.839 164.894 409.606C174.256 409.529 177.49 406.175 177.313 401.198C176.043 404.172 172.47 406.051 165.502 406.105Z" fill="black"/>
<path d="M728.501 444.994H794.194C797.953 444.994 801 441.921 801 438.131V420.026C801 416.235 797.953 413.162 794.194 413.162H728.501C724.742 413.162 721.695 416.235 721.695 420.026V438.131C721.695 441.921 724.742 444.994 728.501 444.994Z" fill="#6C63FF"/>
<path opacity="0.1" d="M728.501 444.994H794.194C797.953 444.994 801 441.921 801 438.131V420.026C801 416.235 797.953 413.162 794.194 413.162H728.501C724.742 413.162 721.695 416.235 721.695 420.026V438.131C721.695 441.921 724.742 444.994 728.501 444.994Z" fill="black"/>
<path d="M794.194 382.883H728.501C724.742 382.883 721.695 385.956 721.695 389.746V407.851C721.695 411.642 724.742 414.715 728.501 414.715H794.194C797.953 414.715 801 411.642 801 407.851V389.746C801 385.956 797.953 382.883 794.194 382.883Z" fill="#6C63FF"/>
<path d="M728.501 382.883H794.194C797.953 382.883 801 379.81 801 376.02V357.914C801 354.124 797.953 351.051 794.194 351.051H728.501C724.742 351.051 721.695 354.124 721.695 357.914V376.02C721.695 379.81 724.742 382.883 728.501 382.883Z" fill="#6C63FF"/>
<path opacity="0.1" d="M728.501 382.883H794.194C797.953 382.883 801 379.81 801 376.02V357.914C801 354.124 797.953 351.051 794.194 351.051H728.501C724.742 351.051 721.695 354.124 721.695 357.914V376.02C721.695 379.81 724.742 382.883 728.501 382.883Z" fill="black"/>
<path d="M794.194 319.219H728.501C724.742 319.219 721.695 322.292 721.695 326.082V344.187C721.695 347.978 724.742 351.051 728.501 351.051H794.194C797.953 351.051 801 347.978 801 344.187V326.082C801 322.292 797.953 319.219 794.194 319.219Z" fill="#6C63FF"/>
</g>
<defs>
<linearGradient id="paint0_linear" x1="556.539" y1="55.7051" x2="556.539" y2="21.4043" gradientUnits="userSpaceOnUse">
<stop stop-color="#808080" stop-opacity="0.25"/>
<stop offset="0.54" stop-color="#808080" stop-opacity="0.12"/>
<stop offset="1" stop-color="#808080" stop-opacity="0.1"/>
</linearGradient>
<linearGradient id="paint1_linear" x1="180053" y1="340975" x2="180053" y2="58709.4" gradientUnits="userSpaceOnUse">
<stop stop-color="#808080" stop-opacity="0.25"/>
<stop offset="0.54" stop-color="#808080" stop-opacity="0.12"/>
<stop offset="1" stop-color="#808080" stop-opacity="0.1"/>
</linearGradient>
<clipPath id="clip0">
<rect width="801" height="504" fill="white"/>
</clipPath>
</defs>
</svg>
