<svg width="279" height="337" viewBox="0 0 279 337" fill="none" xmlns="http://www.w3.org/2000/svg">
<path d="M233.102 0H0V291.378H233.102V0Z" fill="#171718"/>
<path d="M66.1845 24.5605H16.234V57.8609H66.1845V24.5605Z" fill="white"/>
<path d="M209.792 89.4961H16.6503V101.151H209.792V89.4961Z" fill="white"/>
<path d="M209.792 120.299H16.6503V131.954H209.792V120.299Z" fill="white"/>
<path d="M209.792 151.102H16.6503V162.757H209.792V151.102Z" fill="white"/>
<path d="M209.792 181.904H16.6503V193.559H209.792V181.904Z" fill="white"/>
<path d="M209.792 212.707H16.6503V224.362H209.792V212.707Z" fill="white"/>
<path d="M278.891 290.963C278.88 301.958 274.902 312.581 267.687 320.879C260.472 329.176 250.505 334.592 239.618 336.13C228.73 337.668 217.653 335.225 208.422 329.251C199.191 323.276 192.426 314.171 189.371 303.609C186.315 293.046 187.173 281.736 191.788 271.755C196.403 261.775 204.465 253.795 214.492 249.282C224.519 244.77 235.838 244.027 246.368 247.191C256.899 250.354 265.934 257.212 271.814 266.503C276.438 273.823 278.892 282.304 278.891 290.963V290.963Z" fill="#6C63FF"/>
<path d="M271.814 266.504L226.742 311.568C223.91 307.182 208.127 286.8 208.127 286.8C210.15 284.756 212.308 282.851 214.588 281.098L227.675 298.547L266.536 259.686C268.507 261.786 270.274 264.069 271.814 266.504V266.504Z" fill="white"/>
</svg>
