<svg width="123" height="73" viewBox="0 0 123 73" fill="none" xmlns="http://www.w3.org/2000/svg">
<g clip-path="url(#clip0)">
<path d="M36.9259 67.1979H36.2759C27.7759 67.1979 20.0469 63.7189 14.4419 58.1139C8.83691 52.5089 5.3579 44.7789 5.3579 36.2789C5.3579 36.1459 5.35791 36.0129 5.35991 35.8829C5.36191 35.7499 5.3639 35.6169 5.3679 35.4849C5.3719 35.3539 5.37591 35.2209 5.37991 35.0899C5.38591 34.9589 5.3919 34.8259 5.3979 34.6949C5.4059 34.5639 5.41391 34.4329 5.42091 34.3019C5.42891 34.1709 5.43891 34.0399 5.44791 33.9089C5.45791 33.7799 5.4689 33.6489 5.4809 33.5199V33.5179C5.5159 33.1289 5.5569 32.7409 5.6059 32.3559C6.4969 25.4169 9.71291 19.1759 14.4439 14.4459C19.4359 9.45393 26.1159 6.14493 33.5179 5.48293C33.6469 5.47093 33.7779 5.45993 33.9069 5.44993H33.9089C34.0379 5.43993 34.1689 5.42993 34.2999 5.42293C34.4309 5.41293 34.5619 5.40693 34.6929 5.39993H34.6949C34.8239 5.39393 34.9569 5.38794 35.0879 5.38194C35.2209 5.37594 35.3519 5.37193 35.4829 5.36993H35.4849C35.6159 5.36593 35.7489 5.36393 35.8809 5.36193C36.0119 5.35993 36.1449 5.35793 36.2769 5.35793H36.9269C45.4229 5.35793 53.1539 8.83993 58.7609 14.4459C64.3659 20.0509 67.8469 27.7799 67.8469 36.2779C67.8469 44.7779 64.3679 52.5079 58.7629 58.1129C53.1559 63.7189 45.4279 67.1979 36.9259 67.1979ZM36.2749 72.5549H36.9249L86.6019 72.5549C96.5809 72.5549 105.651 68.4739 112.225 61.9009C118.799 55.3269 122.879 46.2569 122.879 36.2779C122.879 26.2989 118.798 17.2309 112.224 10.6569C105.65 4.08293 96.5789 0.000930786 86.6019 0.000930786L36.9259 0.000930786H36.2759C36.1199 0.000930786 35.9649 0.00292859 35.8089 0.00492859C35.6549 0.00692859 35.4979 0.00893182 35.3439 0.0129318C35.1899 0.0189318 35.0329 0.0229307 34.8789 0.0289307C34.7249 0.0349307 34.5699 0.0429344 34.4159 0.0499344C34.2619 0.0579344 34.1089 0.0659283 33.9549 0.0749283C33.8009 0.0849283 33.6479 0.095933 33.4959 0.107933C33.3419 0.119933 33.1889 0.130928 33.0369 0.144928C24.3439 0.923928 16.5099 4.80093 10.6539 10.6569C5.21091 16.0999 1.47591 23.2569 0.352905 31.2209V31.2229C0.309905 31.5219 0.270909 31.8249 0.235909 32.1269C0.200909 32.4299 0.169906 32.7319 0.143906 33.0389C0.129906 33.1909 0.116904 33.3439 0.104904 33.4959C0.0929042 33.6499 0.081907 33.8029 0.071907 33.9569C0.061907 34.1089 0.0539055 34.2639 0.0469055 34.4179C0.0389055 34.5719 0.0309094 34.7269 0.0259094 34.8809C0.0199094 35.0349 0.0159095 35.1899 0.0119095 35.3459C0.00790948 35.4999 0.00390735 35.6549 0.00190735 35.8109C-9.26515e-05 35.9669 -9.15527e-05 36.1219 -9.15527e-05 36.2779C-9.15527e-05 46.2569 4.07991 55.3269 10.6539 61.9019C17.2269 68.4739 26.2969 72.5549 36.2749 72.5549Z" fill="#FF4141"/>
</g>
<defs>
<clipPath id="clip0">
<rect width="122.879" height="72.555" fill="white" transform="translate(122.879 72.5549) rotate(-180)"/>
</clipPath>
</defs>
</svg>
