<svg width="123" height="73" viewBox="0 0 123 73" fill="none" xmlns="http://www.w3.org/2000/svg">
<g clip-path="url(#clip0)">
<path d="M85.953 5.357H86.603C95.103 5.357 102.832 8.836 108.437 14.441C114.042 20.046 117.521 27.776 117.521 36.276C117.521 36.409 117.521 36.542 117.519 36.672C117.517 36.805 117.515 36.938 117.511 37.07C117.507 37.201 117.503 37.334 117.499 37.465C117.493 37.596 117.487 37.729 117.481 37.86C117.473 37.991 117.465 38.122 117.458 38.253C117.45 38.384 117.44 38.515 117.431 38.646C117.421 38.775 117.41 38.906 117.398 39.035V39.037C117.363 39.426 117.322 39.814 117.273 40.199C116.382 47.138 113.166 53.379 108.435 58.109C103.443 63.101 96.763 66.41 89.361 67.072C89.232 67.084 89.101 67.095 88.972 67.105H88.97C88.841 67.115 88.71 67.125 88.579 67.132C88.448 67.142 88.317 67.148 88.186 67.155H88.184C88.055 67.161 87.922 67.167 87.791 67.173C87.658 67.179 87.527 67.183 87.396 67.185H87.394C87.263 67.189 87.13 67.191 86.998 67.193C86.867 67.195 86.734 67.197 86.602 67.197H85.952C77.456 67.197 69.725 63.715 64.118 58.109C58.513 52.504 55.032 44.775 55.032 36.277C55.032 27.777 58.511 20.047 64.116 14.442C69.723 8.836 77.451 5.357 85.953 5.357ZM86.604 0H85.954H36.277C26.298 0 17.228 4.081 10.654 10.654C4.08 17.228 0 26.298 0 36.277C0 46.256 4.081 55.324 10.655 61.898C17.229 68.472 26.3 72.554 36.277 72.554H85.953H86.603C86.759 72.554 86.914 72.552 87.07 72.55C87.224 72.548 87.381 72.546 87.535 72.542C87.689 72.536 87.846 72.532 88 72.526C88.154 72.52 88.309 72.512 88.463 72.505C88.617 72.497 88.77 72.489 88.924 72.48C89.078 72.47 89.231 72.459 89.383 72.447C89.537 72.435 89.69 72.424 89.842 72.41C98.535 71.631 106.369 67.754 112.225 61.898C117.668 56.455 121.403 49.298 122.526 41.334V41.332C122.569 41.033 122.608 40.73 122.643 40.428C122.678 40.125 122.709 39.823 122.735 39.516C122.749 39.364 122.762 39.211 122.774 39.059C122.786 38.905 122.797 38.752 122.807 38.598C122.817 38.446 122.825 38.291 122.832 38.137C122.84 37.983 122.848 37.828 122.853 37.674C122.859 37.52 122.863 37.365 122.867 37.209C122.871 37.055 122.875 36.9 122.877 36.744C122.879 36.588 122.879 36.433 122.879 36.277C122.879 26.298 118.799 17.228 112.225 10.653C105.652 4.081 96.582 0 86.604 0Z" fill="#36AD2C"/>
</g>
<defs>
<clipPath id="clip0">
<rect width="122.879" height="72.555" fill="white"/>
</clipPath>
</defs>
</svg>
