<svg width="256" height="243" viewBox="0 0 256 243" fill="none" xmlns="http://www.w3.org/2000/svg">
<path d="M215.5 205.031C209.977 205.031 205.5 200.782 205.5 195.539C205.5 190.297 209.977 186.047 215.5 186.047C221.023 186.047 225.5 190.297 225.5 195.539C225.5 200.782 221.023 205.031 215.5 205.031ZM248.345 163.554C244.064 154.465 234.422 148.576 223.757 148.553H192.571C192.548 148.553 192.527 148.553 192.504 148.553C181.254 148.553 171.439 154.846 167.49 164.598C166.964 165.895 166.322 167.53 165.651 169.436H100.178C97.4746 169.436 94.8866 170.474 93.0031 172.315L75.8251 189.111C72.0416 192.81 72.0606 198.699 75.8676 202.376L93.3676 219.278C95.2476 221.094 97.8176 222.117 100.5 222.117H133C138.523 222.117 143 217.867 143 212.625C143 207.382 138.523 203.132 133 203.132H104.693L96.9786 195.682L104.407 188.42H173.153C177.76 188.42 181.77 185.432 182.866 181.185C183.675 178.049 184.69 175.035 186.158 171.41C187.126 169.02 189.557 167.537 192.528 167.537C192.535 167.537 192.541 167.537 192.548 167.537H223.733C226.561 167.543 228.995 168.986 230.086 171.302C232.77 177.003 235.976 185.829 236 195.5C236.024 205.243 232.822 214.271 230.13 220.13C229.045 222.492 226.591 224.016 223.85 224.016C223.845 224.016 223.839 224.016 223.834 224.016H192.271C189.505 224.009 186.913 222.32 185.823 219.812C184.654 217.12 183.64 214.047 182.725 210.416C181.439 205.317 176.041 202.174 170.672 203.393C165.301 204.614 161.989 209.736 163.274 214.834C164.435 219.438 165.763 223.433 167.335 227.05C171.534 236.715 181.304 242.975 192.248 243H223.811C223.832 243 223.852 243 223.874 243C234.549 242.999 244.197 237.005 248.464 227.717C251.92 220.194 256.032 208.49 256 195.455C255.968 182.456 251.819 170.932 248.345 163.554ZM75.7501 233.508C75.7501 238.75 71.2731 243 65.7501 243H30.3466C21.1821 243 12.6106 239.131 6.83061 232.383C1.02111 225.603 -1.23189 216.796 0.649113 208.222C6.65061 180.857 22.5491 155.955 45.4151 138.102C57.8861 128.365 72.1361 120.986 87.3216 116.24C70.7461 104.458 60.0001 85.6713 60.0001 64.5469C60.0001 28.9559 90.5046 0 128 0C165.496 0 196 28.9559 196 64.5469C196 85.6523 185.273 104.424 168.722 116.209C170.397 116.733 172.064 117.285 173.72 117.875C178.89 119.718 181.508 125.191 179.566 130.099C177.625 135.006 171.859 137.492 166.689 135.648C155.136 131.53 142.998 129.312 130.571 129.043C129.717 129.073 128.861 129.094 128 129.094C127.147 129.094 126.298 129.074 125.452 129.044C74.6336 130.166 30.6136 164.744 20.2291 212.091C19.5806 215.047 20.3531 218.077 22.3471 220.406C23.5021 221.754 26.0776 224.016 30.3466 224.016H65.7501C71.2731 224.016 75.7501 228.265 75.7501 233.508ZM125.656 110.054C126.437 110.041 127.218 110.03 128 110.03C128.78 110.03 129.559 110.042 130.337 110.055C155.723 108.893 176 88.9261 176 64.5469C176 39.4234 154.468 18.9844 128 18.9844C101.533 18.9844 80.0001 39.4234 80.0001 64.5469C80.0001 88.9238 100.273 108.89 125.656 110.054Z" fill="#6C63FF"/>
</svg>
