<svg width="388" height="310" viewBox="0 0 388 310" fill="none" xmlns="http://www.w3.org/2000/svg">
<path d="M388 0H0V310H388V0Z" fill="#171718"/>
<path d="M359.195 196.502H27.9524C24.8565 196.502 22.3467 199.162 22.3467 202.444C22.3467 205.725 24.8565 208.386 27.9524 208.386H359.195C362.291 208.386 364.801 205.725 364.801 202.444C364.801 199.162 362.291 196.502 359.195 196.502Z" fill="white"/>
<path d="M359.195 219.127H27.9524C24.8565 219.127 22.3467 221.787 22.3467 225.069C22.3467 228.35 24.8565 231.011 27.9524 231.011H359.195C362.291 231.011 364.801 228.35 364.801 225.069C364.801 221.787 362.291 219.127 359.195 219.127Z" fill="white"/>
<path opacity="0.38" d="M364.801 35.8301H22.3467V177.953H364.801V35.8301Z" fill="white"/>
<path d="M348.893 70.459H258.105V75.4975H348.893V70.459Z" fill="white"/>
<path opacity="0.8" d="M348.893 104.365H258.105V109.404H348.893V104.365Z" fill="white"/>
<path opacity="0.8" d="M348.893 112.814H258.105V117.853H348.893V112.814Z" fill="white"/>
<path d="M323.194 79.3496H258.105V84.3881H323.194V79.3496Z" fill="white"/>
<path d="M55.8479 62.7715H48.5947V145.676H55.8479V62.7715Z" fill="white"/>
<path d="M70.0893 91.498H62.8361V145.677H70.0893V91.498Z" fill="white"/>
<path d="M84.0654 84.3906H76.8121V145.676H84.0654V84.3906Z" fill="white"/>
<path d="M98.3067 92.9414H91.0535V145.675H98.3067V92.9414Z" fill="white"/>
<g opacity="0.8">
<path opacity="0.8" d="M98.3066 115.709C97.8795 115.706 97.4657 115.55 97.1325 115.267L80.3535 101.215L68.1385 112.336L47.0796 83.1892C46.9279 82.9796 46.8166 82.7404 46.7521 82.4852C46.6876 82.2301 46.6711 81.964 46.7037 81.7021C46.7694 81.1731 47.0306 80.6935 47.4299 80.3688C47.8292 80.044 48.3339 79.9007 48.8329 79.9703C49.3319 80.04 49.7843 80.3169 50.0907 80.7401L68.7067 106.595L80.2399 96.0966L99.4808 112.156C99.7936 112.413 100.022 112.768 100.135 113.17C100.248 113.572 100.239 114.002 100.109 114.399C99.9796 114.795 99.7361 115.139 99.4127 115.381C99.0894 115.623 98.7026 115.752 98.3066 115.749V115.709Z" fill="white"/>
</g>
<path opacity="0.8" d="M241.61 108.175C241.61 117.935 238.879 127.476 233.764 135.59C228.648 143.705 221.377 150.029 212.87 153.763C204.363 157.497 195.003 158.473 185.972 156.567C176.942 154.662 168.648 149.961 162.139 143.058C155.629 136.155 151.197 127.362 149.403 117.789C147.609 108.217 148.534 98.295 152.06 89.2794C155.586 80.2638 161.555 72.5591 169.213 67.1398C176.87 61.7205 185.872 58.83 195.08 58.834V108.175H241.61Z" fill="white"/>
<path opacity="0.8" d="M247.822 100.168H201.272V50.8262C207.386 50.8235 213.44 52.098 219.089 54.5767C224.738 57.0554 229.87 60.6898 234.193 65.2721C238.516 69.8544 241.945 75.2948 244.283 81.2823C246.622 87.2699 247.824 93.6873 247.822 100.168V100.168Z" fill="white"/>
</svg>
