<svg width="315" height="284" viewBox="0 0 315 284" fill="none" xmlns="http://www.w3.org/2000/svg">
<path d="M309.647 6.44922H8.74475V276.442H309.647V6.44922Z" fill="white"/>
<path d="M315 0H0V11.5494H315V0Z" fill="#6C63FF"/>
<path d="M315 272.451H0V284.001H315V272.451Z" fill="#6C63FF"/>
<path d="M38.138 71.2676H22.9824V155.574H38.138V71.2676Z" fill="#6C63FF"/>
<path d="M59.3776 105.887H44.2219V155.575H59.3776V105.887Z" fill="#6C63FF"/>
<path d="M80.6015 121.398H65.4459V155.591H80.6015V121.398Z" fill="#6C63FF"/>
<path d="M101.826 95.127H86.67V155.576H101.826V95.127Z" fill="#6C63FF"/>
<path d="M123.05 80.1152H107.894V155.574H123.05V80.1152Z" fill="#6C63FF"/>
<path d="M144.274 71.2676H129.118V155.574H144.274V71.2676Z" fill="#6C63FF"/>
<path d="M291.38 42.6602H163.662V253.57H291.38V42.6602Z" fill="black"/>
<path d="M285.513 62.9062H173.729V163.952H285.513V62.9062Z" fill="white"/>
</svg>
