<svg width="481" height="435" viewBox="0 0 481 435" fill="none" xmlns="http://www.w3.org/2000/svg">
<g clip-path="url(#clip0)">
<path d="M-92 434.695H0.168609" stroke="#6C63FF" stroke-miterlimit="10"/>
<path d="M441.358 60.0215H53.6917C47.7435 60.0215 42.9215 65.3253 42.9215 71.8679V352.922C42.9215 359.465 47.7435 364.769 53.6917 364.769H441.358C447.306 364.769 452.128 359.465 452.128 352.922V71.8679C452.128 65.3253 447.306 60.0215 441.358 60.0215Z" fill="black"/>
<path d="M428.865 40.7832H41.199C35.2508 40.7832 30.4288 46.087 30.4288 52.6296V333.684C30.4288 340.226 35.2508 345.53 41.199 345.53H428.865C434.813 345.53 439.635 340.226 439.635 333.684V52.6296C439.635 46.087 434.813 40.7832 428.865 40.7832Z" stroke="#6C63FF" stroke-miterlimit="10"/>
<path d="M30.4288 70H439.635" stroke="#6C63FF" stroke-miterlimit="10"/>
<path opacity="0.3" d="M382.672 138.498H278.947C276.772 138.498 275.009 140.437 275.009 142.83V153.099C275.009 155.491 276.772 157.43 278.947 157.43H382.672C384.847 157.43 386.61 155.491 386.61 153.099V142.83C386.61 140.437 384.847 138.498 382.672 138.498Z" fill="white"/>
<path opacity="0.3" d="M404.049 191.02H257.57C255.395 191.02 253.632 192.959 253.632 195.351V201.956C253.632 204.348 255.395 206.287 257.57 206.287H404.049C406.224 206.287 407.987 204.348 407.987 201.956V195.351C407.987 192.959 406.224 191.02 404.049 191.02Z" fill="white"/>
<path opacity="0.3" d="M404.049 232.549H257.57C255.395 232.549 253.632 234.488 253.632 236.88V243.485C253.632 245.877 255.395 247.817 257.57 247.817H404.049C406.224 247.817 407.987 245.877 407.987 243.485V236.88C407.987 234.488 406.224 232.549 404.049 232.549Z" fill="white"/>
<path opacity="0.3" d="M404.049 274.076H257.57C255.395 274.076 253.632 276.015 253.632 278.408V285.013C253.632 287.405 255.395 289.344 257.57 289.344H404.049C406.224 289.344 407.987 287.405 407.987 285.013V278.408C407.987 276.015 406.224 274.076 404.049 274.076Z" fill="white"/>
<path d="M388.225 132.391H284.499C282.324 132.391 280.561 134.33 280.561 136.722V146.991C280.561 149.384 282.324 151.323 284.499 151.323H388.225C390.4 151.323 392.163 149.384 392.163 146.991V136.722C392.163 134.33 390.4 132.391 388.225 132.391Z" stroke="#6C63FF" stroke-miterlimit="10"/>
<path d="M409.601 184.912H263.123C260.948 184.912 259.185 186.851 259.185 189.244V195.848C259.185 198.241 260.948 200.18 263.123 200.18H409.601C411.776 200.18 413.539 198.241 413.539 195.848V189.244C413.539 186.851 411.776 184.912 409.601 184.912Z" stroke="#6C63FF" stroke-miterlimit="10"/>
<path d="M409.601 226.441H263.123C260.948 226.441 259.185 228.381 259.185 230.773V237.378C259.185 239.77 260.948 241.709 263.123 241.709H409.601C411.776 241.709 413.539 239.77 413.539 237.378V230.773C413.539 228.381 411.776 226.441 409.601 226.441Z" stroke="#6C63FF" stroke-miterlimit="10"/>
<path d="M409.601 267.969H263.123C260.948 267.969 259.185 269.908 259.185 272.3V278.905C259.185 281.297 260.948 283.237 263.123 283.237H409.601C411.776 283.237 413.539 281.297 413.539 278.905V272.3C413.539 269.908 411.776 267.969 409.601 267.969Z" stroke="#6C63FF" stroke-miterlimit="10"/>
<path opacity="0.3" d="M61.5218 68.2648C66.1215 68.2648 69.8503 64.1634 69.8503 59.1041C69.8503 54.0448 66.1215 49.9434 61.5218 49.9434C56.9221 49.9434 53.1934 54.0448 53.1934 59.1041C53.1934 64.1634 56.9221 68.2648 61.5218 68.2648Z" fill="white"/>
<path opacity="0.3" d="M84.8416 68.2648C89.4413 68.2648 93.17 64.1634 93.17 59.1041C93.17 54.0448 89.4413 49.9434 84.8416 49.9434C80.2419 49.9434 76.5131 54.0448 76.5131 59.1041C76.5131 64.1634 80.2419 68.2648 84.8416 68.2648Z" fill="white"/>
<path opacity="0.3" d="M108.161 68.2648C112.761 68.2648 116.49 64.1634 116.49 59.1041C116.49 54.0448 112.761 49.9434 108.161 49.9434C103.562 49.9434 99.8328 54.0448 99.8328 59.1041C99.8328 64.1634 103.562 68.2648 108.161 68.2648Z" fill="white"/>
<path d="M64.8532 64.6008C69.4529 64.6008 73.1817 60.4994 73.1817 55.44C73.1817 50.3807 69.4529 46.2793 64.8532 46.2793C60.2535 46.2793 56.5247 50.3807 56.5247 55.44C56.5247 60.4994 60.2535 64.6008 64.8532 64.6008Z" stroke="#6C63FF" stroke-miterlimit="10"/>
<path d="M88.173 64.6008C92.7727 64.6008 96.5015 60.4994 96.5015 55.44C96.5015 50.3807 92.7727 46.2793 88.173 46.2793C83.5733 46.2793 79.8445 50.3807 79.8445 55.44C79.8445 60.4994 83.5733 64.6008 88.173 64.6008Z" stroke="#6C63FF" stroke-miterlimit="10"/>
<path d="M111.493 64.6008C116.092 64.6008 119.821 60.4994 119.821 55.44C119.821 50.3807 116.092 46.2793 111.493 46.2793C106.893 46.2793 103.164 50.3807 103.164 55.44C103.164 60.4994 106.893 64.6008 111.493 64.6008Z" stroke="#6C63FF" stroke-miterlimit="10"/>
<path d="M159.717 332.705C158.322 325.64 157.953 315.99 158.422 309.278C158.422 309.278 151.371 275.208 145.824 272.029L145.822 272.031C145.737 272.151 143.045 276.034 142.703 288.047C142.356 300.251 138.428 308.259 138.428 308.259C138.428 308.259 139.699 323.471 138.972 332.705L159.717 332.705Z" fill="white"/>
<path d="M211.006 115.902H83.0491C81.3158 115.902 79.5995 116.278 77.9981 117.007C76.3968 117.737 74.9418 118.806 73.7161 120.154C72.4905 121.503 71.5183 123.103 70.855 124.864C70.1917 126.626 69.8503 128.514 69.8503 130.42V318.189C69.8503 320.095 70.1917 321.983 70.855 323.744C71.5183 325.506 72.4905 327.106 73.7161 328.454C74.9418 329.802 76.3968 330.872 77.9981 331.601C79.5995 332.331 81.3158 332.706 83.0491 332.706H127.942C126.443 325.867 124.579 315.185 126.467 307.757L126.466 307.752L126.467 307.755C126.555 307.409 126.649 307.067 126.754 306.735C128.05 301.915 128.483 296.864 128.026 291.862C128.86 287.588 128.86 283.169 128.026 278.895C126.639 271.777 125.669 264.785 125.669 264.785C125.669 264.785 124.904 255.378 125.572 249.612C125.586 249.485 125.604 249.365 125.62 249.242C125.384 249.183 125.252 249.149 125.252 249.149C125.252 249.149 127.217 239.361 127.91 233.132C128.074 231.661 128.289 229.797 128.523 227.809C127.883 227.692 127.252 227.517 126.639 227.284C120.398 224.869 118.433 203.003 118.433 203.003V196.075C118.433 196.075 116.353 185.46 123.634 180.757C130.645 176.228 133.445 174.988 133.643 174.902C133.696 174.86 133.748 174.822 133.803 174.776C134.595 174.092 135.222 173.204 135.629 172.19C135.639 172.016 135.641 171.842 135.636 171.67C135.518 169.186 133.946 166.927 132.454 164.957C131.182 163.276 129.91 161.595 128.638 159.914C128.202 159.413 127.867 158.817 127.655 158.164C127.575 157.804 127.54 157.433 127.551 157.062C127.55 156.925 127.551 156.788 127.554 156.651C127.574 155.398 127.605 154.145 127.646 152.892C127.682 151.798 127.933 150.417 128.907 150.192C129.414 150.075 130.085 150.279 130.353 149.791C130.443 149.59 130.466 149.361 130.418 149.144C130.414 149.16 130.414 149.177 130.409 149.193C130.406 149.172 130.403 149.152 130.399 149.132C130.199 148.254 130.078 147.357 130.038 146.453C130.028 146.045 130.081 145.638 130.195 145.25C130.759 143.433 132.703 142.687 134.421 142.345C136.139 142.002 138.067 141.707 139.145 140.197C139.434 139.695 139.747 139.211 140.083 138.747C140.577 138.252 141.185 137.915 141.841 137.772C143.973 137.178 146.225 137.398 148.229 138.395C149.06 138.812 149.895 139.374 150.806 139.31C151.753 139.245 152.562 138.512 153.496 138.333C155.006 138.045 156.449 139.289 157.193 140.763C157.666 141.7 157.902 142.759 157.878 143.831C157.896 144.897 157.546 145.932 156.898 146.726C156.249 147.484 155.279 148.005 155.009 149.004C154.899 149.41 154.925 149.848 154.828 150.258C154.816 150.31 154.796 150.358 154.78 150.407C154.798 150.433 154.817 150.457 154.835 150.482C155.971 152.13 156.733 154.052 157.057 156.089C157.38 158.126 157.256 160.219 156.695 162.192C156.133 164.166 155.151 165.963 153.829 167.434C152.508 168.905 150.886 170.007 149.098 170.648C149.094 170.776 149.089 170.905 149.09 171.034C149.056 171.836 149.18 172.636 149.452 173.38C149.724 174.124 150.138 174.796 150.666 175.349L160.965 179.994C160.965 179.994 167.164 179.167 169.401 189.344C169.76 191.035 169.889 192.776 169.784 194.509C169.703 196.043 169.893 198.745 171.482 202.241C174.024 207.834 173.446 220.673 168.246 221.945C163.319 223.149 161.403 222.643 161.214 222.586L161.203 222.811C161.284 225.22 162.064 245.999 164.894 248.513C165.677 249.209 165.527 249.678 164.885 249.995L164.887 249.997C164.887 249.997 164.892 250.13 164.904 250.371C164.989 251.89 165.426 257.678 167.32 260.971C169.517 264.785 169.286 286.778 169.286 286.778L170.788 299.745C170.788 299.745 169.864 307.753 170.788 309.151C171.313 309.944 171.948 322.223 172.401 332.706H211.006C214.507 332.706 217.864 331.177 220.339 328.454C222.814 325.732 224.205 322.039 224.205 318.189V130.42C224.205 128.514 223.864 126.626 223.2 124.864C222.537 123.103 221.565 121.503 220.339 120.154C219.113 118.806 217.658 117.737 216.057 117.007C214.456 116.278 212.739 115.902 211.006 115.902V115.902Z" fill="white"/>
<path d="M197.681 99.4121H69.7235C62.434 99.4121 56.5247 105.912 56.5247 113.93V301.698C56.5247 309.716 62.434 316.216 69.7235 316.216H197.681C204.97 316.216 210.879 309.716 210.879 301.698V113.93C210.879 105.912 204.97 99.4121 197.681 99.4121Z" stroke="#6C63FF" stroke-miterlimit="10"/>
<path d="M427.076 -13.4453C424.709 -13.2983 422.427 -12.429 420.484 -10.9348C418.541 -9.44072 417.015 -7.38089 416.077 -4.98629C413.327 2.32631 416.868 10.916 422.184 16.2485C427.5 21.5809 434.329 24.6289 440.534 28.6352C448.867 34.0164 456.356 41.4864 460.526 51.0753C464.696 60.6641 465.139 72.542 460.238 81.7026C455.688 90.2052 447.416 95.294 439.526 99.9872" stroke="#6C63FF" stroke-miterlimit="10"/>
<path d="M441.856 26.5814C447.222 26.5814 451.573 24.2573 451.573 21.3903C451.573 18.5233 447.222 16.1992 441.856 16.1992C436.49 16.1992 432.14 18.5233 432.14 21.3903C432.14 24.2573 436.49 26.5814 441.856 26.5814Z" fill="white"/>
<path d="M424.089 32.0794C429.455 32.0794 433.805 29.7553 433.805 26.8883C433.805 24.0214 429.455 21.6973 424.089 21.6973C418.722 21.6973 414.372 24.0214 414.372 26.8883C414.372 29.7553 418.722 32.0794 424.089 32.0794Z" fill="white"/>
<path d="M451.85 60.7826C457.217 60.7826 461.567 58.4584 461.567 55.5915C461.567 52.7245 457.217 50.4004 451.85 50.4004C446.484 50.4004 442.134 52.7245 442.134 55.5915C442.134 58.4584 446.484 60.7826 451.85 60.7826Z" fill="white"/>
<path d="M471.283 60.7826C476.65 60.7826 481 58.4584 481 55.5915C481 52.7245 476.65 50.4004 471.283 50.4004C465.917 50.4004 461.567 52.7245 461.567 55.5915C461.567 58.4584 465.917 60.7826 471.283 60.7826Z" fill="white"/>
</g>
<defs>
<clipPath id="clip0">
<rect width="573" height="453" fill="white" transform="translate(-92 -18)"/>
</clipPath>
</defs>
</svg>
