<svg width="878" height="606" viewBox="0 0 878 606" fill="none" xmlns="http://www.w3.org/2000/svg">
<g clip-path="url(#clip0)">
<path d="M917.08 341.735C912.975 375.687 904.446 402.947 892.739 424.687C877.161 453.653 850.514 465.324 826.711 477.536C819.832 481.059 812.681 484.061 805.322 486.515C762.007 501.029 713.528 497.178 675.447 489.516C648.738 484.136 621.626 480.827 594.371 479.619C586.597 479.281 578.816 479.113 571.027 479.116C559.016 479.131 342.753 483.094 290.099 380.177C277.099 354.789 268.189 323.777 264.987 285.975C255.929 179.103 305.716 108.912 369.937 63.0334C491.423 -23.7535 657.945 -20.1139 777.64 68.959C857.369 128.291 932.019 218.086 917.08 341.735Z" fill="#3F3D56"/>
<path d="M761.113 245.568C727.41 221.244 674.624 198.239 616.29 182.454C563.176 168.081 511.37 161.142 470.405 162.914L470.191 158.315C511.645 156.522 563.988 163.52 617.577 178.021C676.455 193.953 729.813 217.23 763.968 241.881L761.113 245.568Z" fill="#F2F2F2"/>
<path d="M757.614 264.305C757.644 285.856 752.964 307.171 743.88 326.858C743.122 328.506 742.332 330.139 741.51 331.756C728.418 357.648 708.055 379.467 682.742 394.729C657.43 409.99 628.185 418.079 598.342 418.073C510.379 418.073 439.069 349.228 439.069 264.305C439.069 260.746 439.195 257.215 439.446 253.712C439.565 251.93 439.719 250.159 439.908 248.399C448.153 170.949 515.944 110.537 598.342 110.537C686.304 110.537 757.614 179.383 757.614 264.305Z" fill="#6C63FF"/>
<path opacity="0.1" d="M743.88 326.857C743.122 328.505 742.332 330.138 741.51 331.755C736.856 332.243 731.957 332.598 726.813 332.819C722.555 333.003 718.173 333.095 713.695 333.095C674.583 333.095 627.511 326.125 579.424 313.115C525.834 298.612 477.352 278.328 442.903 255.995C441.73 255.235 440.578 254.474 439.446 253.711C439.565 251.93 439.719 250.159 439.908 248.398C441.735 249.655 443.618 250.914 445.559 252.174C479.603 274.24 527.599 294.308 580.712 308.681C628.379 321.581 675.007 328.491 713.671 328.491C718.092 328.491 722.401 328.401 726.599 328.22C732.712 327.953 738.473 327.498 743.88 326.857Z" fill="black"/>
<path d="M713.695 329.413C674.584 329.414 627.51 322.443 579.426 309.431C525.836 294.93 477.351 274.644 442.902 252.312C407.734 229.513 391.243 207.048 396.467 189.056C401.69 171.063 427.873 160.145 470.191 158.314L470.405 162.914C450.643 163.769 434.537 166.605 422.536 171.342C410.564 176.068 403.338 182.446 401.059 190.298C398.779 198.15 401.519 207.225 409.203 217.27C416.905 227.339 429.138 237.843 445.561 248.49C479.6 270.557 527.598 290.625 580.713 304.998C628.381 317.897 675.005 324.809 713.672 324.81C718.09 324.81 722.399 324.719 726.597 324.538C746.36 323.683 762.465 320.847 774.466 316.109C786.438 311.383 793.664 305.006 795.944 297.153C800.037 283.054 787.667 264.734 761.113 245.568L763.968 241.881C777.633 251.744 787.748 261.466 794.033 270.776C800.771 280.757 802.958 290.05 800.535 298.396C795.312 316.389 769.129 327.306 726.811 329.137C722.553 329.321 718.173 329.413 713.695 329.413Z" fill="#F2F2F2"/>
<path d="M602.555 82.8053C603.563 82.8053 604.38 82.0164 604.38 81.0433C604.38 80.0701 603.563 79.2812 602.555 79.2812C601.547 79.2812 600.73 80.0701 600.73 81.0433C600.73 82.0164 601.547 82.8053 602.555 82.8053Z" fill="#F2F2F2"/>
<path d="M360.424 157.995C361.432 157.995 362.249 157.206 362.249 156.233C362.249 155.26 361.432 154.471 360.424 154.471C359.416 154.471 358.599 155.26 358.599 156.233C358.599 157.206 359.416 157.995 360.424 157.995Z" fill="#F2F2F2"/>
<path d="M353.732 276.639C354.74 276.639 355.557 275.85 355.557 274.877C355.557 273.904 354.74 273.115 353.732 273.115C352.724 273.115 351.907 273.904 351.907 274.877C351.907 275.85 352.724 276.639 353.732 276.639Z" fill="#F2F2F2"/>
<path d="M726.054 92.7888C726.726 92.7888 727.271 92.2629 727.271 91.6141C727.271 90.9654 726.726 90.4395 726.054 90.4395C725.382 90.4395 724.837 90.9654 724.837 91.6141C724.837 92.2629 725.382 92.7888 726.054 92.7888Z" fill="#F2F2F2"/>
<path d="M872.671 258.431C873.343 258.431 873.887 257.905 873.887 257.257C873.887 256.608 873.343 256.082 872.671 256.082C871.999 256.082 871.454 256.608 871.454 257.257C871.454 257.905 871.999 258.431 872.671 258.431Z" fill="#F2F2F2"/>
<path d="M805.75 204.396C806.422 204.396 806.967 203.87 806.967 203.222C806.967 202.573 806.422 202.047 805.75 202.047C805.078 202.047 804.533 202.573 804.533 203.222C804.533 203.87 805.078 204.396 805.75 204.396Z" fill="#F2F2F2"/>
<path d="M470.539 119.22C471.211 119.22 471.756 118.695 471.756 118.046C471.756 117.397 471.211 116.871 470.539 116.871C469.867 116.871 469.322 117.397 469.322 118.046C469.322 118.695 469.867 119.22 470.539 119.22Z" fill="#F2F2F2"/>
<path d="M801.492 242.572C802.164 242.572 802.708 242.046 802.708 241.397C802.708 240.749 802.164 240.223 801.492 240.223C800.82 240.223 800.275 240.749 800.275 241.397C800.275 242.046 800.82 242.572 801.492 242.572Z" fill="#F2F2F2"/>
<path d="M368.333 360.629C369.005 360.629 369.55 360.103 369.55 359.454C369.55 358.805 369.005 358.279 368.333 358.279C367.661 358.279 367.116 358.805 367.116 359.454C367.116 360.103 367.661 360.629 368.333 360.629Z" fill="#F2F2F2"/>
<path d="M440.729 408.791C441.401 408.791 441.946 408.265 441.946 407.616C441.946 406.967 441.401 406.441 440.729 406.441C440.057 406.441 439.512 406.967 439.512 407.616C439.512 408.265 440.057 408.791 440.729 408.791Z" fill="#F2F2F2"/>
<path d="M545.977 31.859H544.298V30.2383H543.397V31.859H541.718V32.7291H543.397V34.3499H544.298V32.7291H545.977V31.859Z" fill="#F2F2F2"/>
<path d="M727.271 431.252H725.591V429.631H724.691V431.252H723.012V432.122H724.691V433.742H725.591V432.122H727.271V431.252Z" fill="#F2F2F2"/>
<path d="M839.819 407.172H838.14V405.551H837.239V407.172H835.56V408.042H837.239V409.662H838.14V408.042H839.819V407.172Z" fill="#F2F2F2"/>
<path d="M600.73 156.822C608.122 156.822 614.114 151.036 614.114 143.9C614.114 136.764 608.122 130.979 600.73 130.979C593.338 130.979 587.346 136.764 587.346 143.9C587.346 151.036 593.338 156.822 600.73 156.822Z" fill="#3F3D56"/>
<path d="M497.915 251.384C505.307 251.384 511.3 245.599 511.3 238.463C511.3 231.326 505.307 225.541 497.915 225.541C490.524 225.541 484.531 231.326 484.531 238.463C484.531 245.599 490.524 251.384 497.915 251.384Z" fill="#3F3D56"/>
<path d="M645.749 381.187C653.141 381.187 659.133 375.402 659.133 368.265C659.133 361.129 653.141 355.344 645.749 355.344C638.357 355.344 632.365 361.129 632.365 368.265C632.365 375.402 638.357 381.187 645.749 381.187Z" fill="#3F3D56"/>
<path d="M600.73 271.353C608.122 271.353 614.114 265.568 614.114 258.431C614.114 251.295 608.122 245.51 600.73 245.51C593.338 245.51 587.346 251.295 587.346 258.431C587.346 265.568 593.338 271.353 600.73 271.353Z" fill="#3F3D56"/>
<path d="M504.608 342.421C511.999 342.421 517.992 336.636 517.992 329.5C517.992 322.363 511.999 316.578 504.608 316.578C497.216 316.578 491.223 322.363 491.223 329.5C491.223 336.636 497.216 342.421 504.608 342.421Z" fill="#3F3D56"/>
<path d="M672.517 202.046C679.909 202.046 685.902 196.261 685.902 189.125C685.902 181.988 679.909 176.203 672.517 176.203C665.126 176.203 659.133 181.988 659.133 189.125C659.133 196.261 665.126 202.046 672.517 202.046Z" fill="#3F3D56"/>
<path d="M716.928 289.56C724.32 289.56 730.312 283.775 730.312 276.638C730.312 269.502 724.32 263.717 716.928 263.717C709.536 263.717 703.544 269.502 703.544 276.638C703.544 283.775 709.536 289.56 716.928 289.56Z" fill="#3F3D56"/>
<path d="M600.73 219.08C610.474 219.08 618.373 211.454 618.373 202.047C618.373 192.64 610.474 185.014 600.73 185.014C590.986 185.014 583.087 192.64 583.087 202.047C583.087 211.454 590.986 219.08 600.73 219.08Z" fill="white"/>
<path d="M600.73 177.377C594.114 177.377 587.77 179.914 583.092 184.43C578.415 188.946 575.787 195.071 575.787 201.458C575.787 214.758 600.73 258.43 600.73 258.43C600.73 258.43 625.673 214.758 625.673 201.458C625.673 195.071 623.045 188.946 618.367 184.43C613.69 179.914 607.345 177.377 600.73 177.377V177.377ZM600.73 213.205C598.444 213.205 596.209 212.55 594.308 211.324C592.407 210.098 590.926 208.355 590.051 206.316C589.176 204.277 588.947 202.033 589.393 199.868C589.839 197.703 590.94 195.715 592.556 194.154C594.173 192.594 596.232 191.531 598.475 191.1C600.717 190.67 603.041 190.891 605.153 191.735C607.265 192.58 609.071 194.01 610.341 195.845C611.611 197.681 612.289 199.838 612.289 202.045C612.289 203.511 611.99 204.962 611.409 206.316C610.828 207.67 609.977 208.9 608.903 209.936C607.83 210.973 606.556 211.795 605.153 212.355C603.751 212.916 602.248 213.205 600.73 213.205V213.205Z" fill="#FF6584"/>
<path d="M504.608 291.91C514.351 291.91 522.25 284.284 522.25 274.877C522.25 265.47 514.351 257.844 504.608 257.844C494.864 257.844 486.965 265.47 486.965 274.877C486.965 284.284 494.864 291.91 504.608 291.91Z" fill="white"/>
<path d="M504.608 250.209C497.992 250.209 491.648 252.746 486.97 257.262C482.292 261.778 479.664 267.903 479.664 274.29C479.664 287.59 504.608 331.262 504.608 331.262C504.608 331.262 529.551 287.59 529.551 274.29C529.551 267.903 526.923 261.778 522.245 257.262C517.567 252.746 511.223 250.209 504.608 250.209ZM504.608 286.037C502.321 286.037 500.087 285.382 498.186 284.156C496.285 282.93 494.803 281.187 493.928 279.148C493.054 277.109 492.825 274.865 493.271 272.7C493.717 270.536 494.818 268.547 496.434 266.986C498.051 265.426 500.11 264.363 502.353 263.932C504.595 263.502 506.919 263.723 509.031 264.567C511.143 265.412 512.948 266.842 514.219 268.678C515.489 270.513 516.167 272.67 516.167 274.877C516.167 276.343 515.868 277.794 515.287 279.148C514.706 280.502 513.854 281.732 512.781 282.768C511.708 283.805 510.433 284.627 509.031 285.187C507.629 285.748 506.126 286.037 504.608 286.037V286.037Z" fill="#FF6584"/>
<path d="M716.928 239.048C726.672 239.048 734.571 231.422 734.571 222.015C734.571 212.608 726.672 204.982 716.928 204.982C707.185 204.982 699.286 212.608 699.286 222.015C699.286 231.422 707.185 239.048 716.928 239.048Z" fill="white"/>
<path d="M716.928 197.348C710.313 197.348 703.969 199.885 699.291 204.401C694.613 208.917 691.985 215.042 691.985 221.429C691.985 234.728 716.928 278.401 716.928 278.401C716.928 278.401 741.871 234.728 741.871 221.429C741.871 215.042 739.243 208.917 734.566 204.401C729.888 199.885 723.544 197.348 716.928 197.348ZM716.928 233.176C714.642 233.176 712.407 232.521 710.506 231.295C708.605 230.069 707.124 228.326 706.249 226.287C705.374 224.248 705.145 222.004 705.591 219.839C706.037 217.674 707.138 215.686 708.755 214.125C710.371 212.564 712.431 211.502 714.673 211.071C716.915 210.64 719.24 210.861 721.352 211.706C723.464 212.551 725.269 213.981 726.539 215.816C727.809 217.651 728.487 219.809 728.487 222.016C728.487 224.976 727.269 227.814 725.102 229.907C722.934 232 719.994 233.176 716.928 233.176Z" fill="#FF6584"/>
<path d="M600.73 104.546C610.474 104.546 618.373 96.9205 618.373 87.5134C618.373 78.1064 610.474 70.4805 600.73 70.4805C590.986 70.4805 583.087 78.1064 583.087 87.5134C583.087 96.9205 590.986 104.546 600.73 104.546Z" fill="white"/>
<path d="M600.73 62.8457C594.114 62.8457 587.77 65.3828 583.092 69.8989C578.415 74.415 575.787 80.5401 575.787 86.9268C575.787 100.226 600.73 143.899 600.73 143.899C600.73 143.899 625.673 100.226 625.673 86.9268C625.673 80.5401 623.045 74.415 618.367 69.8989C613.69 65.3828 607.345 62.8457 600.73 62.8457V62.8457ZM600.73 98.6737C598.444 98.6737 596.209 98.0192 594.308 96.793C592.407 95.5668 590.926 93.8239 590.051 91.7847C589.176 89.7456 588.947 87.5018 589.393 85.337C589.839 83.1723 590.94 81.1838 592.556 79.6231C594.173 78.0624 596.232 76.9996 598.475 76.569C600.717 76.1384 603.041 76.3594 605.153 77.204C607.265 78.0487 609.071 79.479 610.341 81.3142C611.611 83.1494 612.289 85.307 612.289 87.5141C612.289 90.4738 611.071 93.3123 608.903 95.4051C606.736 97.498 603.795 98.6737 600.73 98.6737V98.6737Z" fill="#FF6584"/>
<path d="M645.749 330.675C655.493 330.675 663.392 323.049 663.392 313.642C663.392 304.235 655.493 296.609 645.749 296.609C636.005 296.609 628.106 304.235 628.106 313.642C628.106 323.049 636.005 330.675 645.749 330.675Z" fill="white"/>
<path d="M645.749 288.973C639.134 288.973 632.789 291.51 628.112 296.026C623.434 300.542 620.806 306.667 620.806 313.054C620.806 326.353 645.749 370.026 645.749 370.026C645.749 370.026 670.692 326.353 670.692 313.054C670.692 309.891 670.047 306.76 668.794 303.838C667.54 300.917 665.703 298.262 663.387 296.026C661.07 293.79 658.321 292.016 655.294 290.806C652.268 289.596 649.025 288.973 645.749 288.973V288.973ZM645.749 324.801C643.463 324.801 641.228 324.146 639.327 322.92C637.426 321.694 635.945 319.951 635.07 317.912C634.195 315.873 633.966 313.629 634.412 311.464C634.858 309.299 635.959 307.311 637.576 305.75C639.192 304.189 641.252 303.127 643.494 302.696C645.736 302.265 648.06 302.486 650.173 303.331C652.285 304.176 654.09 305.606 655.36 307.441C656.63 309.276 657.308 311.434 657.308 313.641C657.308 316.601 656.09 319.439 653.923 321.532C651.755 323.625 648.815 324.801 645.749 324.801V324.801Z" fill="#FF6584"/>
<path d="M497.916 199.697C507.659 199.697 515.558 192.071 515.558 182.664C515.558 173.257 507.659 165.631 497.916 165.631C488.172 165.631 480.273 173.257 480.273 182.664C480.273 192.071 488.172 199.697 497.916 199.697Z" fill="white"/>
<path d="M497.916 157.996C491.3 157.996 484.956 160.533 480.278 165.049C475.6 169.565 472.972 175.69 472.972 182.077C472.972 195.377 497.916 239.05 497.916 239.05C497.916 239.05 522.859 195.377 522.859 182.077C522.859 178.915 522.214 175.783 520.96 172.862C519.706 169.94 517.869 167.285 515.553 165.049C513.237 162.813 510.487 161.039 507.461 159.829C504.435 158.619 501.191 157.996 497.916 157.996V157.996ZM497.916 193.824C495.629 193.824 493.395 193.17 491.494 191.943C489.593 190.717 488.111 188.974 487.236 186.935C486.362 184.896 486.133 182.652 486.579 180.487C487.025 178.323 488.126 176.334 489.742 174.774C491.359 173.213 493.418 172.15 495.661 171.719C497.903 171.289 500.227 171.51 502.339 172.354C504.451 173.199 506.256 174.629 507.527 176.465C508.797 178.3 509.475 180.457 509.475 182.665C509.475 185.624 508.257 188.463 506.089 190.556C503.921 192.648 500.981 193.824 497.916 193.824V193.824Z" fill="#FF6584"/>
<path d="M672.517 152.123C682.261 152.123 690.16 144.497 690.16 135.09C690.16 125.683 682.261 118.057 672.517 118.057C662.774 118.057 654.875 125.683 654.875 135.09C654.875 144.497 662.774 152.123 672.517 152.123Z" fill="white"/>
<path d="M672.517 110.42C665.902 110.42 659.558 112.957 654.88 117.473C650.202 121.989 647.574 128.114 647.574 134.501C647.574 147.801 672.517 191.473 672.517 191.473C672.517 191.473 697.46 147.801 697.46 134.501C697.46 128.114 694.833 121.989 690.155 117.473C685.477 112.957 679.133 110.42 672.517 110.42V110.42ZM672.517 146.248C670.231 146.248 667.996 145.593 666.095 144.367C664.195 143.141 662.713 141.398 661.838 139.359C660.963 137.32 660.734 135.076 661.18 132.911C661.626 130.746 662.727 128.758 664.344 127.197C665.96 125.637 668.02 124.574 670.262 124.143C672.505 123.713 674.829 123.934 676.941 124.778C679.053 125.623 680.858 127.053 682.128 128.888C683.398 130.724 684.076 132.881 684.076 135.088C684.076 138.048 682.859 140.887 680.691 142.979C678.523 145.072 675.583 146.248 672.517 146.248V146.248Z" fill="#FF6584"/>
<path d="M335.431 590.881C335.431 599.231 260.342 606 167.715 606C75.0888 606 0 599.231 0 590.881C0 582.531 69.0372 563.793 161.664 563.793C254.291 563.793 335.431 582.531 335.431 590.881Z" fill="#3F3D56"/>
<path d="M176.874 100.26H111.047V152.855H176.874V100.26Z" fill="#2F2E41"/>
<path d="M224.096 540.377L229.778 561.405L214.626 563.691L207.523 541.748L224.096 540.377Z" fill="#A0616A"/>
<path d="M116.609 537.178V559.578H100.51L102.877 537.178H116.609Z" fill="#A0616A"/>
<path d="M211.785 559.577C211.785 559.577 223.149 554.548 229.778 559.577C236.407 564.605 239.722 576.034 239.722 576.034C239.722 576.034 256.768 597.063 236.881 596.149C216.993 595.234 216.046 592.949 216.046 589.748C216.046 586.548 216.993 582.891 213.679 581.52C210.364 580.148 208.944 573.748 209.891 571.92C210.838 570.091 211.785 559.577 211.785 559.577Z" fill="#2F2E41"/>
<path d="M119.45 555.921C119.45 555.921 103.824 546.271 100.51 553.839C97.195 561.407 92.4599 571.007 92.4599 571.007C92.4599 571.007 79.2015 591.121 95.7744 591.579C112.347 592.036 115.188 589.75 116.609 585.636C118.029 581.521 116.609 578.321 119.45 578.321C122.291 578.321 123.712 572.378 122.291 569.636C120.871 566.893 119.45 555.921 119.45 555.921Z" fill="#2F2E41"/>
<path d="M164.434 131.231C164.434 131.231 160.646 151.803 170.589 153.174C180.533 154.545 190.477 158.66 190.95 161.403C191.424 164.145 152.122 193.403 152.122 193.403L127.973 186.089C127.973 186.089 103.824 180.146 104.771 175.574C105.718 171.003 107.612 164.603 107.612 164.603C107.612 164.603 135.076 159.117 135.549 150.888C136.023 142.66 139.337 129.402 139.337 129.402L164.434 131.231Z" fill="#A0616A"/>
<path opacity="0.1" d="M164.434 131.231C164.434 131.231 160.646 151.803 170.589 153.174C180.533 154.545 190.477 158.66 190.95 161.403C191.424 164.145 152.122 193.403 152.122 193.403L127.973 186.089C127.973 186.089 103.824 180.146 104.771 175.574C105.718 171.003 107.612 164.603 107.612 164.603C107.612 164.603 135.076 159.117 135.549 150.888C136.023 142.66 139.337 129.402 139.337 129.402L164.434 131.231Z" fill="black"/>
<path d="M101.93 260.146C101.93 260.146 119.081 275.959 153.122 274.453C187.162 272.946 184.321 284.375 184.321 284.375L182.901 302.661C182.901 302.661 200.894 379.005 198.526 419.233C198.526 419.233 199.473 438.434 206.103 448.948C212.732 459.462 230.725 537.177 227.884 543.12C225.043 549.063 204.209 546.778 204.209 546.778C204.209 546.778 184.795 475.92 175.324 459.92C165.854 443.919 164.907 434.776 164.907 434.776L132.708 344.261L128.447 383.576C128.447 383.576 128.92 414.662 128.92 417.405C128.92 420.148 128.447 442.091 126.553 446.662C124.659 451.234 117.556 524.377 121.818 536.72C126.079 549.063 99.5625 542.206 99.5625 542.206C99.5625 542.206 91.5128 462.662 93.8804 447.119C96.248 431.576 90.0923 403.69 90.0923 403.69C90.0923 403.69 72.0989 318.661 82.0426 304.947C82.0426 304.947 88.6718 258.318 91.9864 258.775L101.93 260.146Z" fill="#181B69"/>
<path d="M150.939 141.06C165.322 141.06 176.982 129.803 176.982 115.917C176.982 102.03 165.322 90.7734 150.939 90.7734C136.555 90.7734 124.895 102.03 124.895 115.917C124.895 129.803 136.555 141.06 150.939 141.06Z" fill="#A0616A"/>
<path d="M84.4101 274.775C84.8931 276.174 90.5421 273.294 95.9685 270.135C101.187 267.099 106.192 263.803 106.192 263.803C111.874 281.175 147.861 274.318 147.861 274.318C147.861 274.318 147.951 274.441 148.116 274.66C149.305 276.219 154.433 282.72 160.645 287.118C167.748 292.146 184.321 280.261 184.321 280.261C184.321 280.261 210.09 220.68 213.385 189.119C214.11 182.175 213.75 176.584 211.785 173.288C200.894 155.002 185.571 157.306 185.571 157.306C183.028 163.729 162.54 173.288 162.54 173.288L142.179 176.945C121.818 180.602 115.662 160.031 115.662 160.031C109.98 159.117 99.5625 169.174 99.5625 169.174C89.6188 171.917 84.4101 203.917 84.4101 203.917C84.4101 203.917 85.3998 205.106 86.9434 207.003C87.8147 208.068 88.8611 209.357 90.007 210.788C90.4048 211.282 90.812 211.794 91.2287 212.315C96.4799 218.925 103.114 227.615 104.771 231.346C107.612 237.746 101.93 247.346 95.3009 246.889C88.6717 246.432 83.4631 272.032 84.4101 274.775Z" fill="black"/>
<path d="M151.175 299.461C151.175 299.461 128.92 326.432 118.976 316.832C109.033 307.232 147.861 284.832 147.861 284.832L151.175 299.461Z" fill="#A0616A"/>
<path d="M94.8274 291.232C94.8274 291.232 114.241 319.576 103.351 320.49C92.4598 321.404 79.2015 301.747 79.2015 301.747L94.8274 291.232Z" fill="#A0616A"/>
<path d="M92.1297 155.622C94.6275 150.301 97.9843 145.307 99.5839 139.672C101.501 132.919 100.754 125.773 100.526 118.774C100.325 112.587 100.55 106.328 102.149 100.334C103.748 94.3392 106.807 88.5865 111.59 84.4642C123.788 73.9515 146.112 73.1966 161.006 77.573C166.878 79.2983 173.133 82.5838 174.589 88.3403C174.809 89.2093 174.907 90.1049 175.153 90.9675C176.372 95.2534 180.914 97.9654 182.553 102.119C184.672 107.491 181.404 113.334 180.977 119.068C180.478 125.762 183.887 132.087 187.247 137.962C189.244 141.455 191.321 145.176 191.122 149.162C190.957 151.341 190.27 153.455 189.117 155.335C185.088 162.265 176.862 166.462 168.633 166.671C165.962 166.739 163.162 166.386 160.961 164.922C157.326 162.506 156.261 157.64 157.018 153.442C157.776 149.245 159.983 145.448 161.712 141.528C162.242 140.325 162.721 139.102 163.163 137.866C168.525 134.977 172.657 130.35 174.83 124.805C177.002 119.259 177.075 113.15 175.035 107.558C172.995 101.966 168.974 97.2489 163.682 94.2408C158.39 91.2328 152.167 90.1269 146.112 91.1184C140.057 92.11 134.56 95.1352 130.591 99.6598C126.623 104.184 124.437 109.917 124.422 115.846C124.406 121.775 126.561 127.519 130.506 132.063C134.451 136.607 139.933 139.659 145.982 140.68C147.286 147.022 146.693 153.591 144.274 159.62C142.267 164.597 139.138 169.066 136.036 173.487C134.552 175.601 133.009 177.773 130.788 179.158C129.387 179.958 127.884 180.578 126.317 181.001C119.742 183.042 112.819 184.685 105.979 183.767C99.1388 182.848 92.3645 178.865 90.0336 172.589C87.9912 167.09 89.6318 160.943 92.1297 155.622Z" fill="#2F2E41"/>
<path d="M149.044 115.916C164.735 115.916 177.455 108.957 177.455 100.373C177.455 91.7889 164.735 84.8301 149.044 84.8301C133.354 84.8301 120.634 91.7889 120.634 100.373C120.634 108.957 133.354 115.916 149.044 115.916Z" fill="#2F2E41"/>
<path opacity="0.1" d="M148.116 274.661C149.305 276.22 154.433 282.721 160.645 287.119C167.748 292.147 184.321 280.261 184.321 280.261C184.321 280.261 210.09 220.681 213.385 189.12C211.586 183.88 209.471 178.747 207.05 173.746L212.495 195.003C212.495 195.003 188.109 213.975 182.9 221.747C177.692 229.518 182.427 255.575 182.9 259.69C183.374 263.804 173.43 265.176 168.695 264.718C163.96 264.261 163.013 268.376 158.751 268.376C156.692 268.376 152.207 271.466 148.116 274.661Z" fill="black"/>
<path d="M204.682 173.746H211.785C211.785 173.746 229.305 208.032 227.411 246.89C225.517 285.747 206.103 301.29 183.848 306.319C161.593 311.347 151.649 314.547 148.808 311.347C145.967 308.147 144.546 281.633 144.546 281.633C144.546 281.633 159.225 268.376 163.487 268.376C167.748 268.376 168.695 264.261 173.43 264.718C178.165 265.175 188.109 263.804 187.636 259.69C187.162 255.575 182.427 229.518 187.636 221.747C192.844 213.975 204.682 173.746 204.682 173.746Z" fill="#676767"/>
<path opacity="0.1" d="M86.9435 207.003C87.8148 208.069 88.8612 209.358 90.0071 210.789L87.2513 205.289C87.2513 205.289 87.1376 205.911 86.9435 207.003Z" fill="black"/>
<path opacity="0.1" d="M84.4101 274.774C84.8931 276.173 90.5421 273.293 95.9685 270.134C95.9117 269.86 95.8501 269.577 95.7744 269.289C94.3538 263.803 104.298 250.545 104.298 250.545L110.927 233.174L109.506 209.859L91.2287 212.314C96.4799 218.925 103.114 227.615 104.771 231.345C107.612 237.745 101.93 247.345 95.3008 246.888C88.6717 246.431 83.4631 272.031 84.4101 274.774Z" fill="black"/>
<path d="M93.8804 194.773L84.4102 203.916C84.4102 203.916 77.7811 240.945 77.7811 243.231C77.7811 245.517 66.4168 260.145 69.2579 270.203C72.0989 280.26 73.993 293.517 71.6254 296.26C69.2579 299.003 65.9433 306.774 71.6254 310.432C77.3075 314.089 84.4102 289.403 101.457 295.803C101.457 295.803 91.0394 279.803 91.5129 278.431C91.9864 277.06 94.354 273.403 92.9334 267.917C91.5129 262.431 101.457 249.174 101.457 249.174L108.086 231.802L106.665 208.488L93.8804 194.773Z" fill="#676767"/>
</g>
<defs>
<clipPath id="clip0">
<rect width="919" height="606" fill="white"/>
</clipPath>
</defs>
</svg>
